<svg xmlns="http://www.w3.org/2000/svg" id="outputsvg" width="368" height="368" viewBox="0 0 3680 3680" style="transform-origin:50% 50%;cursor:move;transition:none 0s ease 0s"><g id="l7fh5YnB7HefcjMcNCE3riT" fill="#F6F6F6" style="transform:none"><g><path id="pFfZfDrUC" d="M1675 3659 c-49 -4 -137 -18 -195 -29 l-105 -21 -117 -39 -117 -39 -103 -51 c-367 -184 -643 -461 -828 -829 l-52 -104 -38 -116 -39 -116 -21 -102 -20 -102 -10 -127 -11 -128 10 -128 11 -128 20 -102 c39 -187 106 -369 199 -535 l46 -83 13 0 13 0 -6 -10 -6 -10 45 -62 c147 -205 362 -397 584 -522 l97 -55 110 -44 110 -45 95 -26 c121 -32 255 -53 395 -62 l110 -6 120 11 120 12 98 20 c53 10 145 35 204 54 l106 35 112 54 112 54 104 71 c57 38 141 101 186 140 l82 71 76 87 c149 170 223 289 335 538 53 118 103 330 120 509 l10 109 -12 14 -12 15 13 8 14 8 -7 98 c-18 251 -84 512 -177 695 l-18 37 -26 6 -25 6 10 21 11 20 -27 47 c-35 61 -105 159 -138 195 -14 15 -26 32 -26 36 0 5 -46 56 -102 113 l-103 104 -95 71 c-109 80 -224 151 -260 160 -14 4 -29 12 -35 19 l-10 13 -100 40 c-133 53 -256 88 -390 111 l-110 18 -130 5 -130 5 -90 -9z m430 -129 l110 -19 85 -26 c47 -15 96 -29 110 -32 14 -4 38 -15 55 -25 l30 -18 -62 0 -63 0 -16 -25 -16 -24 -6 -43 -5 -43 -12 -10 -13 -10 -21 -64 -21 -65 0 -40 c0 -23 3 -50 6 -61 l5 -20 76 -42 76 -43 33 0 33 0 16 30 15 29 0 40 0 39 31 7 30 7 30 40 29 41 0 58 0 58 -10 27 -11 27 -36 35 -37 34 60 -30 c32 -17 90 -51 128 -75 l70 -45 -29 -4 -28 -3 -78 -170 -79 -170 0 -41 0 -40 34 -33 35 -34 48 -4 48 -5 168 81 167 81 0 32 0 32 -37 38 -37 38 -45 0 -44 0 -19 17 -18 16 0 45 0 45 -17 21 -18 20 55 -44 c76 -62 201 -192 263 -272 l52 -68 12 0 13 0 0 -20 0 -20 37 -57 c20 -32 39 -60 42 -63 3 -3 11 -18 18 -35 6 -16 30 -72 52 -123 45 -101 80 -215 106 -337 l16 -78 10 -134 10 -134 -11 -102 c-38 -338 -151 -626 -353 -892 l-61 -80 -86 -85 c-47 -48 -111 -106 -142 -129 l-58 -43 0 -24 0 -24 -29 0 -30 0 -107 -59 c-58 -33 -150 -78 -203 -100 l-96 -41 -113 -29 -113 -30 -132 -17 -132 -18 -140 12 -140 12 -105 24 c-142 32 -243 68 -376 131 l-111 53 -104 70 -104 70 -76 69 c-94 85 -198 199 -252 275 l-41 58 -18 0 -18 0 0 24 0 23 -64 126 -65 127 -40 123 -40 124 -23 119 -22 119 1 150 0 150 22 119 21 120 40 120 41 121 60 120 59 120 68 95 67 94 105 109 105 109 96 73 c53 39 114 82 137 95 l40 23 5 18 5 19 25 0 24 0 78 36 c43 20 130 53 194 74 l116 37 85 17 c47 9 119 20 160 25 l75 10 115 -5 115 -5 110 -19z m412 -127 l-7 -6 -7 6 -6 7 13 0 13 0 -6 -7z m23 -8 c0 -3 -2 -5 -5 -5 -3 0 -5 2 -5 5 0 3 2 5 5 5 3 0 5 -2 5 -5z m-89 -144 l24 -20 -11 -11 -12 -12 -19 10 c-10 6 -27 20 -37 31 l-19 21 25 0 26 0 23 -19z"/><path id="pcJEeTzGD" d="M1914 3497 l-29 -25 -8 -94 c-4 -51 -10 -124 -13 -161 l-6 -68 17 -25 17 -26 33 -14 34 -14 76 0 77 0 29 29 29 29 0 62 0 61 15 6 16 5 14 29 15 28 0 56 0 55 -20 20 c-11 11 -20 24 -20 28 0 5 -12 15 -27 22 l-28 13 -96 5 -95 4 -30 -25z"/><path id="puEFNTFE0" d="M1458 3493 l-18 -4 0 -34 0 -34 60 -98 60 -98 -17 -7 c-10 -3 -35 -7 -55 -7 l-38 -1 0 -59 c0 -33 3 -66 6 -75 l6 -16 41 0 c42 0 244 19 285 26 l22 4 -1 38 0 37 -97 165 -98 165 -69 2 c-39 0 -78 -1 -87 -4z"/><path id="p3kgIiXF3" d="M1088 3359 l-38 -19 -17 -27 -18 -27 0 -81 1 -80 27 -60 c31 -66 58 -100 99 -121 l27 -14 56 0 57 0 34 16 35 17 20 26 21 26 -4 95 -3 95 -29 58 -28 58 -41 30 -40 29 -61 0 -61 -1 -37 -20z m102 -164 c0 -3 -2 -5 -5 -5 -3 0 -5 2 -5 5 0 3 2 5 5 5 3 0 5 -2 5 -5z m39 -90 c0 -5 -8 6 -19 25 -11 19 -19 40 -19 45 0 6 8 -6 19 -25 11 -19 19 -39 19 -45z"/><path id="pRatxwMON" d="M700 3068 l-105 -91 -3 -32 -3 -33 33 -5 c18 -3 85 -14 148 -24 l115 -18 -30 -3 -30 -4 -32 -31 -33 -31 0 -33 0 -33 32 -20 31 -19 39 -6 38 -7 41 7 41 7 44 42 44 43 0 72 0 72 -15 29 -15 30 -28 14 c-15 8 -43 17 -63 21 l-34 6 3 39 4 38 -23 31 -23 31 -35 0 -36 0 -105 -92z"/><path id="ptb98qtQ7" d="M1605 2970 c-167 -33 -306 -93 -440 -188 l-70 -49 -69 -69 -69 -69 -49 -70 c-89 -126 -152 -270 -184 -419 l-15 -71 -6 -141 -6 -141 18 -99 c40 -222 124 -400 269 -568 l51 -58 73 -59 c133 -107 277 -178 451 -222 l86 -21 195 0 195 0 96 26 c52 14 130 40 171 58 l76 31 92 61 92 60 82 82 82 81 57 87 58 87 35 81 36 82 25 96 25 97 5 156 6 155 -17 94 c-39 210 -105 358 -230 516 l-41 53 -32 0 -33 1 0 33 0 32 -58 46 c-82 65 -107 82 -197 127 -99 50 -179 77 -302 102 l-95 20 -137 -1 -136 -1 -90 -18z m382 -115 c147 -28 281 -83 413 -170 36 -24 76 -55 89 -69 l24 -26 19 0 18 0 0 -16 0 -16 49 -54 50 -54 47 -75 46 -76 29 -71 c16 -39 39 -107 51 -152 l22 -81 1 -140 0 -140 -27 -97 -27 -97 -31 -67 c-16 -37 -55 -104 -85 -150 l-55 -83 -74 -74 -73 -74 -87 -57 -86 -58 -83 -35 -82 -35 -105 -24 -105 -24 -88 0 -87 0 -98 21 -97 21 -75 30 c-41 16 -110 50 -153 76 l-77 46 -68 60 c-37 33 -93 90 -124 127 l-57 68 -39 68 c-48 82 -86 178 -113 281 l-21 77 -5 93 -6 92 13 78 c34 214 128 406 275 561 154 162 325 259 550 311 l80 18 86 1 87 1 79 -15z"/><path id="pIpPv77lY" d="M2674 1042 c-21 -16 -60 -52 -87 -81 l-47 -53 0 -38 0 -38 109 -101 c60 -55 113 -101 119 -101 l11 0 6 -20 6 -20 38 0 38 0 60 63 60 62 16 32 17 32 0 74 0 75 -32 48 -33 48 -44 23 -44 23 -77 0 -77 0 -39 -28z m160 -184 l15 -21 -6 -9 -5 -10 -34 33 -33 32 5 9 5 8 19 -10 c10 -6 26 -20 34 -32z"/><path id="pIUMY6gY3" d="M772 911 l-122 -140 0 -33 0 -33 40 -32 39 -33 34 0 35 0 27 35 27 36 14 -12 14 -11 -30 -38 -30 -38 0 -28 0 -29 40 -32 39 -33 34 0 35 0 101 114 101 114 0 26 0 26 10 0 10 0 0 35 0 36 -27 24 -28 24 -37 1 -36 0 -35 -40 -34 -40 -13 15 -13 16 31 32 32 33 0 39 0 40 -40 33 -39 32 -29 0 -29 0 -121 -139z"/><path id="pmnnB31rd" d="M2403 822 l-43 -27 0 -22 0 -23 -33 0 -33 0 -50 -16 c-27 -9 -56 -23 -65 -30 l-16 -14 -28 0 c-15 0 -52 -8 -82 -17 l-53 -17 0 -25 0 -26 55 -174 c30 -96 55 -176 55 -178 0 -2 21 -3 47 -3 l48 0 80 27 80 26 27 28 28 27 0 69 0 68 -20 32 -19 32 -26 7 c-29 7 -30 9 -10 64 8 23 15 54 15 68 l0 26 93 -151 92 -152 38 -1 37 0 40 25 40 25 0 35 0 35 -96 155 -96 155 -31 0 -32 0 -42 -28z"/><path id="p2Yn4VDVE" d="M1295 673 l-27 -68 -99 -80 -99 -80 0 -31 0 -31 51 -22 52 -21 40 0 41 0 23 22 23 21 0 -45 0 -45 56 -22 56 -21 29 0 29 0 0 33 c0 19 -7 80 -15 136 l-16 103 21 59 20 59 0 34 0 34 -47 16 -47 16 -32 0 -32 0 -27 -67z"/><path id="p1485iCgci" d="M1600 435 l0 -215 153 0 154 0 21 23 22 23 0 70 0 70 15 20 14 19 1 65 0 66 -16 23 -17 23 -33 14 -33 14 -141 0 -140 0 0 -215z m197 69 l-6 -6 -13 5 -13 5 19 1 19 1 -6 -6z m-17 -149 c0 -3 -2 -5 -5 -5 -3 0 -5 2 -5 5 0 3 2 5 5 5 3 0 5 -2 5 -5z"/></g></g><g id="l6c9m1LUjN1AIbn1lvttBss" fill="#F6F6F6" style="transform:none"><g><path id="pLx1O4Rth" d="M1338 3598 l-38 -10 0 -15 c0 -20 19 -53 30 -53 l10 0 0 26 0 25 30 10 30 11 0 9 0 9 -12 -1 c-7 -1 -30 -6 -50 -11z"/><path id="pZEHnmeyc" d="M2302 3588 l5 -13 31 -3 32 -3 0 9 0 10 -22 6 c-13 3 -29 6 -36 6 l-14 0 4 -12z"/><path id="pSsWpePNM" d="M1172 3541 l-14 -8 13 -22 14 -21 12 0 c6 0 15 5 18 10 l6 10 -6 20 -6 20 -12 0 c-7 0 -18 -4 -25 -9z"/><path id="piUKRb7Mj" d="M2457 3544 l-7 -7 6 -24 6 -24 -21 -6 -21 -5 0 -19 0 -19 40 0 40 0 0 9 c0 5 -7 11 -15 15 l-15 5 0 22 0 21 20 5 c24 6 26 19 4 27 -20 8 -29 8 -37 0z"/><path id="pL7NSH1aH" d="M1315 3505 l-30 -13 43 -1 42 -1 0 15 0 15 -12 0 c-7 -1 -26 -7 -43 -15z"/><path id="pJOtSWt3u" d="M2607 3483 c-4 -3 -7 -14 -7 -24 l0 -19 25 -16 26 -17 24 13 c14 7 25 16 25 20 0 6 -72 50 -82 50 -3 0 -8 -3 -11 -7z"/><path id="ptQvKhD2k" d="M1210 3470 l-15 -10 22 0 22 0 6 10 6 10 -13 0 c-7 0 -20 -5 -28 -10z"/><path id="p3PnUrXCR" d="M2143 3466 c21 -16 22 -26 1 -26 l-15 0 7 -11 6 -11 19 5 19 5 10 -16 9 -17 1 43 0 42 -37 0 -38 -1 18 -13z"/><path id="puiuFJFGw" d="M1450 3425 l0 -35 25 0 c14 0 25 3 25 6 0 12 -34 64 -42 64 l-8 0 0 -35z"/><path id="p130UGcSDN" d="M963 3443 l-13 -5 0 -13 0 -13 16 -6 15 -6 -7 -22 c-4 -13 -14 -28 -23 -35 l-16 -12 38 -1 38 0 20 10 19 11 0 23 0 23 -25 -5 -25 -4 -6 31 c-7 31 -9 33 -31 24z"/><path id="pR4wkdOit" d="M2589 3400 l23 -20 22 0 21 1 -35 19 c-19 11 -39 19 -45 19 l-10 0 24 -19z"/><path id="peWxpB848" d="M2252 3063 l3 -48 40 -3 40 -2 -18 14 -18 14 -6 36 -6 36 -19 0 -19 0 3 -47z"/><path id="pjKX3e2sq" d="M3200 3020 l-14 -9 20 -38 20 -38 27 -3 27 -3 0 9 c0 7 -45 70 -64 89 -1 1 -8 -2 -16 -7z"/><path id="pxLcCvB0q" d="M3160 2965 c0 -3 2 -5 5 -5 3 0 5 2 5 5 0 3 -2 5 -5 5 -3 0 -5 -2 -5 -5z"/><path id="p1C31zkk6x" d="M3180 2932 c0 -5 7 -15 15 -22 l15 -12 0 10 c0 5 -7 15 -15 22 l-15 12 0 -10z"/><path id="p1FVHnP9fW" d="M3305 2882 l-20 -4 -12 -17 -13 -16 -16 20 -15 20 3 -45 3 -45 27 -3 28 -3 -6 14 -5 15 35 13 c40 14 41 17 23 39 l-12 16 -20 -4z"/><path id="p4BEr8KwW" d="M2662 2767 l3 -32 43 -3 42 -3 0 25 0 25 -15 -5 -14 -6 -31 16 -31 15 3 -32z"/><path id="p19JCyIGGG" d="M3387 2746 c-9 -9 -19 -25 -22 -37 l-7 -20 -14 18 -13 18 -1 -42 0 -42 19 -11 c11 -5 25 -10 31 -10 l11 0 -10 19 -10 18 44 -5 45 -5 0 9 c0 5 -13 31 -29 57 l-28 48 -16 -15z"/><path id="pYud9s90j" d="M2575 2676 l20 -14 -25 -20 -25 -20 -12 10 -13 10 0 -27 0 -28 18 -13 17 -13 24 -1 23 0 -11 14 -12 15 38 3 38 3 12 -15 12 -15 1 36 0 35 -28 27 -28 27 -34 0 -34 0 19 -14z"/><path id="pBDEYOsli" d="M3490 2557 l0 -26 16 -15 c24 -24 26 -19 9 21 -20 48 -25 52 -25 20z"/><path id="p25W5oEDz" d="M3531 2138 l-1 -37 10 -6 10 -6 -1 23 c0 13 -4 32 -9 43 l-9 20 0 -37z"/><path id="pMcLqu8TM" d="M3575 2154 l-16 -16 17 -19 17 -19 19 0 18 0 0 13 c0 6 -3 22 -6 35 l-6 22 -13 0 c-8 0 -21 -7 -30 -16z"/><path id="p1MwktiKA" d="M3540 1846 l0 -54 15 -12 15 -12 0 28 0 27 23 -21 23 -22 17 0 17 0 0 51 0 51 -17 -5 c-10 -2 -26 -8 -36 -12 l-18 -8 -6 22 -5 21 -14 0 -14 0 0 -54z"/><path id="pb7jOZ3XP" d="M3630 1666 l0 -15 -17 -4 -18 -5 23 -1 22 -1 0 20 c0 11 -2 20 -5 20 -3 0 -5 -6 -5 -14z"/><path id="pbxR2DFis" d="M3517 1493 l-7 -6 1 -36 1 -36 9 39 c9 39 8 52 -4 39z"/><path id="pq7DcfFPR" d="M3558 1469 l-18 -10 0 -13 0 -14 26 -6 c31 -8 29 -9 38 27 l6 27 -17 0 c-10 0 -26 -5 -35 -11z"/><path id="p1CEjuMSsV" d="M3530 1330 l0 -10 12 0 11 0 -15 -17 -15 -18 4 -12 4 -12 -12 -23 c-7 -13 -20 -29 -31 -36 l-18 -13 0 -13 c0 -17 -38 -93 -50 -101 l-10 -6 10 -20 c6 -10 15 -19 21 -19 l10 0 33 73 c35 76 86 211 86 228 l0 9 -20 0 -20 0 0 -10z"/><path id="pIoeFfhZD" d="M3440 1215 c0 -3 2 -5 5 -5 3 0 5 2 5 5 0 3 -2 5 -5 5 -3 0 -5 -2 -5 -5z"/><path id="p15Ddo40vK" d="M3420 1165 c0 -3 2 -5 5 -5 3 0 5 2 5 5 0 3 -2 5 -5 5 -3 0 -5 -2 -5 -5z"/><path id="pfHGa3fpQ" d="M3385 1099 c-4 -6 -5 -12 -2 -15 2 -3 7 2 10 11 7 17 1 20 -8 4z"/><path id="p12qfTV46L" d="M236 1003 c10 -15 19 -29 20 -31 0 -1 7 4 13 12 l12 15 -31 16 -31 16 17 -28z"/><path id="p173xhE2JV" d="M3327 1009 l-17 -10 0 -27 0 -27 21 34 c23 37 22 44 -4 30z"/><path id="pzjc7TkD" d="M3358 979 c-22 -12 -23 -23 -2 -43 22 -23 30 -20 53 19 l20 35 -27 0 c-15 0 -35 -5 -44 -11z"/><path id="pYOHEGe0l" d="M355 951 l6 -19 -30 -7 c-17 -4 -33 -10 -35 -14 l-5 -7 21 -32 20 -32 14 0 14 0 0 9 c0 5 8 17 17 26 l17 17 13 -18 13 -18 0 40 -1 39 -13 18 -13 17 -22 0 -22 0 6 -19z"/><path id="pPhURLzIa" d="M1143 827 c21 -17 22 -27 3 -27 -8 0 -18 -4 -21 -10 l-6 -10 10 -18 10 -19 -11 -11 -12 -12 31 0 31 0 16 26 17 25 -3 32 -3 32 -40 3 -40 2 18 -13z"/><path id="pWqtOa4kt" d="M3200 808 c0 -12 1 -19 3 -17 1 2 9 12 16 22 l13 17 -16 0 -16 0 0 -22z"/><path id="p18amXokSU" d="M3230 794 c1 -13 26 -44 36 -44 5 0 15 9 22 20 l12 20 -12 0 c-7 0 -23 3 -35 6 l-23 6 0 -8z"/><path id="pdqEDRufF" d="M431 741 l-13 -8 17 -27 c10 -14 18 -26 20 -26 1 0 2 13 3 30 l1 30 -8 4 c-4 3 -13 1 -20 -3z"/><path id="p13T0yKwhw" d="M1438 683 c6 -2 12 -9 12 -14 l0 -9 -17 -1 -18 -1 13 -5 12 -5 0 -14 0 -14 20 0 20 0 0 35 0 35 -27 -1 -28 -1 13 -5z"/><path id="p1CeJtNKyL" d="M2760 651 l0 -27 12 -12 12 -12 33 0 33 0 0 15 0 14 -14 -5 -14 -5 -6 18 -6 18 -25 12 -25 11 0 -27z"/><path id="p16hs0oaez" d="M520 613 c0 -5 16 -24 35 -43 l35 -34 10 10 11 11 -6 14 -5 14 -28 13 c-15 8 -33 16 -39 19 l-13 5 0 -9z"/><path id="p17X16l2CN" d="M620 615 c0 -3 2 -5 5 -5 3 0 5 2 5 5 0 3 -2 5 -5 5 -3 0 -5 -2 -5 -5z"/><path id="p13oV1jivm" d="M1792 518 l3 -23 21 -3 21 -3 6 20 5 20 -6 5 c-3 3 -16 6 -29 6 l-24 0 3 -22z"/><path id="pnJHXcQat" d="M2793 463 l-23 -15 0 -25 0 -25 13 5 13 5 39 -19 c48 -23 48 -23 35 0 -5 11 -10 30 -10 43 l0 24 12 12 12 12 -34 -1 -35 0 -22 -16z"/><path id="p3pAkB2mX" d="M2367 243 c-4 -3 -7 -14 -7 -24 l0 -18 15 5 14 6 7 -26 6 -26 -6 -16 -6 -16 16 6 c8 3 20 6 24 6 l9 0 -15 37 -16 36 16 9 c9 5 16 13 16 18 l0 10 -33 0 c-19 0 -37 -3 -40 -7z"/><path id="pmosiX9o5" d="M1061 231 l-15 -9 35 -15 34 -14 4 9 3 9 -18 14 c-23 17 -25 17 -43 6z"/><path id="p16QNtmW9a" d="M2485 183 l-30 -16 12 -4 12 -4 43 20 43 19 -25 1 -25 0 -30 -16z"/><path id="p1FfTPWC1C" d="M2255 109 c-10 -15 -4 -18 28 -12 l27 5 0 9 0 9 -24 0 -25 0 -6 -11z"/></g></g><g id="l1YKtu30C8C59SpdPNXbGhA" fill="#7B7B7B" style="transform:none"><g><path id="p2HrhwgOc" d="M1988 3653 c12 -2 30 -2 40 0 l17 5 -40 -1 -40 0 23 -4z"/><path id="psEkvuBXG" d="M1508 3633 l12 -5 13 5 12 5 -25 0 -25 0 13 -5z"/><path id="p17sv6SaGp" d="M2188 3623 l12 -5 13 5 12 5 -25 0 -25 0 13 -5z"/><path id="p13q26kqw7" d="M763 3313 l7 -6 7 6 6 7 -13 0 -13 0 6 -7z"/><path id="pll8RVNE" d="M2933 3283 l7 -6 7 6 6 7 -13 0 -13 0 6 -7z"/><path id="p1DtqEnzu3" d="M3160 3080 l0 -13 7 6 6 7 -6 7 -7 6 0 -13z"/><path id="p5jULrhps" d="M3632 2040 l0 -35 5 18 c2 9 2 25 0 35 l-5 17 0 -35z"/><path id="pNltvcMYr" d="M33 1690 l0 -45 4 23 c2 12 2 32 0 45 l-4 22 0 -45z"/><path id="p1HBhlPDUt" d="M3632 1670 l0 -35 5 18 c2 9 2 25 0 35 l-5 17 0 -35z"/><path id="pSl9ydPRs" d="M1260 136 c0 -2 9 -6 20 -9 l20 -5 0 9 0 9 -20 0 c-11 0 -20 -2 -20 -4z"/><path id="pOb96fgza" d="M1368 103 l13 -5 6 6 6 6 -19 -1 -19 -1 13 -5z"/><path id="pJoQFembZ" d="M1408 93 l13 -5 6 6 6 6 -19 -1 -19 -1 13 -5z"/><path id="pmDyxbOpx" d="M1638 53 c12 -2 30 -2 40 0 l17 5 -40 -1 -40 0 23 -4z"/><path id="p13YRow5Vs" d="M1998 53 c12 -2 30 -2 40 0 l17 5 -40 -1 -40 0 23 -4z"/></g></g><g id="l4n4PEjyQa8Swof6yLhq5eU" fill="#5A2277" style="transform:none"><g><path id="pbEYeTh7L" d="M2020 2803 l-25 -5 -8 -14 -8 -14 -14 0 -15 0 0 -44 0 -44 25 -16 25 -16 0 -23 c0 -29 9 -41 43 -59 l29 -15 -47 -41 c-26 -23 -51 -42 -55 -42 l-7 0 5 26 5 26 -13 39 -13 39 -44 0 -43 0 0 -20 0 -20 -42 1 -43 2 28 4 27 4 0 35 0 34 -35 0 -35 0 0 -18 0 -18 -40 4 -40 4 0 -41 0 -41 -9 0 -10 0 -6 -20 -6 -20 -15 0 -14 0 0 -34 0 -34 20 -5 20 -5 0 -31 0 -31 25 0 25 0 0 -45 0 -45 10 0 10 0 0 -15 0 -15 30 0 30 0 0 -25 0 -25 35 0 35 0 0 115 0 115 9 0 c13 0 57 -60 64 -87 l5 -22 -14 -5 -14 -5 0 -91 0 -90 -20 0 -20 0 0 -75 0 -75 -15 0 -15 0 0 -29 0 -28 -39 -7 -39 -6 -7 -17 -6 -18 -10 18 -10 17 -44 0 -45 0 0 -20 0 -20 -25 0 -25 0 0 -15 0 -15 -20 0 -20 0 0 -32 0 -32 -12 12 -12 12 -38 0 -38 0 0 -15 0 -15 -29 0 -30 0 -6 19 -6 19 -19 5 -20 5 0 11 0 11 14 0 14 0 15 23 16 22 0 -32 1 -33 40 0 41 0 5 15 6 15 12 0 c6 1 21 9 34 19 l22 19 0 35 0 35 -25 16 -25 16 -47 -1 c-27 -1 -78 2 -115 6 l-68 7 0 7 c0 3 9 20 20 36 l20 30 0 38 0 37 -32 1 -33 1 17 5 c10 2 18 8 18 13 l0 8 40 4 40 4 0 -29 0 -28 15 -28 14 -28 29 -12 30 -12 33 3 34 3 3 37 3 37 -24 16 -24 15 -11 25 -12 25 53 0 c28 0 61 3 73 6 l20 5 12 33 c7 18 12 43 12 55 l0 22 -14 15 -15 14 -57 0 -57 0 -19 -17 -18 -16 0 26 0 26 -20 6 -20 6 0 15 0 14 55 0 55 0 0 46 0 47 -17 13 -18 13 58 1 57 0 0 24 0 25 33 3 32 3 3 44 3 44 -50 -5 -51 -5 -5 18 -6 19 -31 0 -31 0 -36 -27 c-20 -15 -37 -31 -39 -35 l-4 -8 -30 0 -30 0 3 -42 3 -42 -12 -4 -12 -4 0 -39 0 -39 -19 0 -19 0 -5 -14 c-3 -7 -9 -34 -12 -60 l-7 -46 -9 0 -9 0 0 -25 0 -25 -40 0 -40 0 -12 20 -13 20 -32 0 -33 0 0 -40 0 -40 20 -37 19 -36 -16 -12 -16 -12 7 -55 7 -56 19 -17 19 -17 -15 -15 -15 -15 3 -37 3 -36 24 -3 23 -4 6 -20 5 -20 43 5 44 5 0 -19 0 -19 -9 0 -8 0 -8 -32 -7 -33 -8 20 c-4 12 -15 27 -24 34 l-16 14 -40 -6 -41 -5 -15 -13 -15 -12 3 -46 3 -46 26 -3 27 -3 -15 -29 c-8 -16 -18 -32 -24 -35 l-9 -6 0 -45 0 -44 40 0 40 0 1 13 c0 6 7 -6 15 -27 8 -22 22 -48 31 -58 l17 -19 -3 -47 -2 -48 40 -35 40 -36 3 -34 3 -34 23 -10 22 -10 0 -11 0 -11 22 -10 23 -10 -42 -7 -43 -8 0 -38 0 -39 8 -5 c4 -2 56 -8 115 -12 l107 -7 0 17 0 16 15 0 14 0 0 84 0 85 -47 3 -47 3 -5 32 -5 33 -17 20 -18 20 25 0 24 0 7 36 7 36 13 5 14 5 0 19 0 19 19 0 19 0 12 -15 13 -16 -21 -20 -22 -20 0 -34 0 -35 30 0 30 0 0 -20 0 -20 10 0 10 0 0 -24 c0 -13 3 -31 6 -40 l6 -16 23 0 23 0 6 -15 5 -15 35 0 35 0 7 36 6 35 -19 67 -19 67 -22 3 -22 3 0 25 0 24 15 0 15 0 0 38 0 37 -35 32 c-19 18 -35 37 -35 43 l0 10 45 0 45 0 0 23 c0 12 5 29 10 37 l10 15 0 -22 0 -23 10 0 10 0 0 -25 0 -25 35 0 35 0 2 148 2 147 3 -122 4 -123 29 0 30 0 0 -29 0 -30 10 -6 10 -6 0 -29 0 -29 22 -15 22 -16 37 0 36 0 16 18 c10 10 17 24 17 30 l0 11 15 -5 15 -6 0 -20 0 -20 -30 -28 -30 -28 0 -36 0 -36 16 0 16 0 -6 -52 c-3 -29 -8 -74 -12 -100 l-6 -47 -51 -38 c-29 -21 -61 -43 -72 -49 l-20 -11 0 -44 0 -44 40 2 c22 1 66 6 97 10 l57 9 24 22 23 22 48 0 47 0 45 30 44 31 0 29 0 30 20 0 20 0 0 80 0 81 -27 5 -28 5 0 42 0 42 -57 -1 -57 -1 14 21 15 20 0 37 c0 21 -3 44 -6 53 l-6 16 -24 0 -24 0 0 25 0 25 -12 0 -11 0 5 6 6 5 38 -20 39 -21 55 0 c30 0 65 3 78 6 l22 6 0 34 0 34 10 0 10 0 0 15 0 15 15 0 15 0 0 -35 0 -35 20 0 20 0 0 -15 0 -15 43 0 44 0 11 39 12 38 0 77 0 76 -51 0 -50 0 2 -52 3 -52 -12 -4 -12 -4 0 41 0 41 -35 0 -35 0 0 18 0 18 41 -4 41 -4 -7 81 -7 81 26 0 26 0 0 40 0 41 15 5 15 6 0 47 0 47 -12 12 -12 12 -43 0 -43 0 0 -39 0 -39 -51 -7 -51 -7 -11 11 -11 11 -36 2 -35 1 60 6 60 6 3 23 3 22 11 0 c6 0 26 11 45 26 l33 25 0 15 0 14 20 0 20 0 0 120 0 120 -26 0 -26 0 -50 40 -51 40 -23 0 -23 0 -15 22 -16 22 0 54 0 54 -47 -3 c-27 -1 -58 -2 -70 -1 l-23 2 -11 44 -11 44 -21 6 c-24 6 -58 6 -97 -1z m180 -403 l39 0 6 10 c3 6 13 10 22 10 l15 0 -71 -57 -71 -58 0 -27 0 -27 -22 -16 -23 -16 -3 21 -3 20 -14 0 -14 0 -6 19 -6 20 -16 3 -16 3 40 28 c22 15 53 41 69 58 l29 30 3 -11 4 -10 38 0z m-802 -211 l-13 -8 -3 26 -4 26 14 8 13 8 3 -26 4 -26 -14 -8z m872 -137 l0 -47 28 -17 27 -17 -37 -1 -38 0 0 -64 0 -64 -24 -4 -24 -5 2 104 3 104 11 11 c7 7 12 17 12 24 l0 12 13 5 c6 3 15 6 20 6 l7 1 0 -48z m-248 -27 c-2 -14 -8 -25 -12 -25 l-7 0 5 25 c2 14 8 25 12 25 l7 0 -5 -25z m325 -127 l-4 -23 0 40 -1 40 5 -17 c2 -10 2 -28 0 -40z m-1067 7 c0 -3 -2 -5 -5 -5 -3 0 -5 2 -5 5 0 3 2 5 5 5 3 0 5 -2 5 -5z m810 -35 l20 0 0 -20 0 -20 -40 0 -40 0 0 -30 0 -31 -16 -6 -16 -6 6 -59 7 -58 -26 0 -25 0 0 35 0 35 15 0 15 0 0 89 0 90 33 3 32 3 8 -12 8 -13 19 0z m-660 -430 l0 -10 -16 0 -16 0 4 -44 3 -45 -22 -4 -23 -4 -6 19 -6 19 7 39 7 40 34 0 34 0 0 -10z m880 -170 l0 -20 -35 0 -35 0 0 -15 0 -15 -15 0 -15 0 0 25 0 25 39 0 40 0 6 10 c10 16 15 12 15 -10z m-120 -75 c0 -3 -2 -5 -5 -5 -3 0 -5 2 -5 5 0 3 2 5 5 5 3 0 5 -2 5 -5z m-740 -60 c0 -3 -2 -5 -5 -5 -3 0 -5 2 -5 5 0 3 2 5 5 5 3 0 5 -2 5 -5z"/><path id="puTWILxIl" d="M2370 1514 l-10 -25 0 -70 0 -69 45 0 45 0 0 49 0 50 10 6 10 6 0 34 0 33 -16 6 c-9 3 -29 6 -45 6 l-29 0 -10 -26z"/><path id="pDsCoarCp" d="M1683 1083 l-33 -4 0 -35 0 -34 40 0 40 0 0 -16 0 -15 48 3 47 3 0 50 0 50 -55 1 c-30 1 -70 -1 -87 -3z"/></g></g><g id="l6FMYkSnEru8ZE7wk1A4NWn" fill="#4E2265" style="transform:none"><g><path id="pwsyHZkxV" d="M2080 2786 l0 -16 14 0 14 0 7 -31 7 -30 21 -9 c12 -4 33 -20 46 -34 l24 -26 20 0 19 0 -5 14 -6 14 15 6 14 5 0 -19 0 -20 11 0 10 0 -3 52 -3 53 -41 22 -41 23 -62 6 -61 7 0 -17z"/><path id="pCT2fwS24" d="M1700 2716 c0 -19 -3 -41 -6 -50 l-6 -16 -18 0 -18 0 -4 11 -3 10 -40 9 c-22 5 -55 10 -72 10 l-33 0 0 -26 0 -26 14 11 14 12 6 -17 7 -17 -11 -11 c-5 -5 -10 -14 -10 -19 l0 -9 17 6 16 7 9 -13 c4 -7 8 -19 8 -25 l0 -13 -35 0 -35 0 0 15 0 15 -20 0 c-11 0 -29 -6 -40 -12 l-20 -13 -17 18 -18 17 33 -6 32 -6 0 12 0 13 17 13 18 12 -8 8 -7 8 -58 0 -57 0 -44 -13 c-24 -6 -57 -19 -73 -29 l-28 -16 0 -19 0 -18 -15 -15 -15 -15 0 -70 0 -69 -35 0 -34 0 -11 -19 -10 -20 0 -40 0 -41 15 0 15 0 0 17 0 17 16 -20 15 -19 5 13 6 12 14 0 14 0 0 -21 0 -20 20 6 20 6 16 -9 17 -9 19 5 20 5 -6 28 -5 28 17 -6 c9 -4 19 -10 22 -14 l6 -8 13 9 14 8 -27 25 -26 25 4 13 c2 8 7 26 10 41 l6 26 24 -11 24 -11 -5 -13 -5 -13 19 0 19 0 12 12 12 12 0 22 0 21 -24 -4 -23 -5 -6 31 -6 31 23 25 c13 14 28 25 35 25 l11 0 0 -15 0 -16 25 -25 25 -25 0 -14 0 -15 -15 0 -15 0 0 -10 0 -10 20 0 20 0 0 -11 0 -10 -35 -15 c-19 -7 -44 -14 -55 -14 l-20 0 0 -10 c0 -5 7 -13 16 -18 l16 -9 -4 -19 -3 -19 -20 0 -20 0 -3 -25 c-1 -14 -5 -34 -7 -45 l-4 -20 -31 -2 -30 -2 0 14 0 15 -15 0 -15 0 -6 -25 -6 -25 -14 0 -14 0 0 -17 -1 -18 -12 23 -13 23 -7 -7 -7 -7 0 16 0 17 -20 0 -20 0 0 15 0 15 -14 0 c-7 0 -27 -5 -45 -11 l-31 -11 0 -33 0 -34 -10 -6 -10 -6 0 -40 0 -39 20 0 20 0 0 -10 0 -10 -15 0 -15 0 0 -45 0 -46 15 -5 14 -6 -6 -129 -6 -129 16 0 17 0 0 -32 c0 -18 4 -39 8 -46 l8 -12 15 17 c8 10 19 28 26 40 l12 21 -6 35 -5 35 -19 -5 -19 -5 -6 16 -6 16 11 14 c7 8 20 16 31 19 l19 5 26 -24 26 -24 24 0 24 0 10 19 10 18 -6 7 -6 6 15 0 16 0 6 -15 5 -15 18 0 17 0 -20 -14 -19 -14 23 -31 c28 -39 28 -42 -7 -35 l-30 6 -30 -22 -31 -21 0 -21 0 -20 15 6 15 5 0 -9 c0 -16 19 -11 41 11 l20 20 21 -7 20 -6 24 13 24 13 -6 20 -7 21 -18 13 c-11 7 -19 16 -19 20 l0 8 30 2 30 2 0 -16 0 -16 23 6 c12 3 25 6 28 6 l6 0 -5 25 -4 25 8 0 c4 0 16 -7 26 -17 l18 -16 0 14 0 15 40 -4 40 -4 0 11 0 12 -15 5 c-8 4 -15 11 -15 16 l0 11 38 -6 37 -6 15 9 c8 5 11 10 7 10 l-8 0 10 18 10 19 -11 11 -12 12 17 0 18 0 5 -15 c4 -8 10 -15 14 -15 l9 0 3 22 3 21 13 5 12 4 0 -26 0 -26 10 0 c6 0 13 7 16 15 4 8 10 15 15 15 l8 0 -5 -15 -6 -15 11 0 11 0 1 23 1 22 8 -25 8 -25 1 -65 c0 -36 -2 -75 -5 -87 l-6 -23 -14 0 -14 0 0 20 0 20 -20 0 -20 0 0 -15 0 -15 -20 0 -20 0 0 -20 0 -20 -14 0 -14 0 -5 20 -5 20 -16 0 -16 0 0 -15 0 -15 -16 0 -15 0 6 -11 7 -10 -18 -20 -18 -20 52 -47 c29 -26 52 -51 52 -55 l0 -7 -20 0 c-11 0 -20 -1 -20 -3 0 -1 -4 -17 -10 -35 l-9 -34 14 6 15 5 0 -9 c0 -5 -11 -17 -24 -26 l-25 -16 -23 4 -23 3 23 20 c12 11 22 23 22 27 l0 8 -35 0 -35 0 0 15 0 15 10 0 c6 0 10 -4 10 -10 l0 -10 30 0 c17 0 30 2 30 6 0 13 -41 93 -51 99 l-10 7 -6 -21 -5 -21 -19 10 -18 10 8 23 9 22 10 -2 10 -2 -3 42 c-3 52 -1 50 -25 37 l-19 -10 5 -14 5 -14 -11 -7 -12 -8 -9 14 -9 14 0 -27 0 -28 -19 0 -20 0 -6 -10 -6 -10 -9 5 -8 5 -7 -30 -7 -30 -14 0 -14 0 -10 25 -10 25 -25 10 c-15 6 -28 10 -31 10 -10 0 -3 -25 12 -41 l15 -17 1 -42 0 -42 -12 -8 -12 -7 2 -19 c1 -11 2 -23 1 -28 l-1 -9 -20 18 c-24 22 -25 34 -4 49 l15 12 -7 17 -6 17 -23 0 -22 0 -21 -19 -22 -18 0 -62 0 -62 20 -39 c11 -21 25 -42 31 -45 5 -4 24 -25 40 -47 l29 -41 0 -29 0 -28 10 0 10 0 0 -15 0 -15 45 0 45 0 0 20 0 20 -29 0 -30 0 -6 11 c-10 15 -2 19 34 22 l31 2 0 13 0 12 15 0 14 0 10 -17 9 -17 16 13 16 13 0 27 0 27 12 12 c7 7 18 12 26 12 l13 0 -6 -19 -6 -19 21 5 22 6 8 21 8 21 7 -17 7 -16 -12 -22 -11 -21 -30 -6 -30 -6 10 -10 c6 -6 11 -14 11 -18 l0 -6 -24 4 -24 5 -6 -11 -7 -11 15 0 16 0 0 -10 0 -10 -45 0 -45 0 0 -40 0 -40 19 0 c10 0 38 -9 62 -20 l44 -20 38 0 37 0 0 21 0 21 58 -6 c31 -3 76 -8 98 -11 l42 -7 21 11 21 12 0 -10 c0 -6 14 -26 31 -45 l31 -35 36 -7 36 -7 43 11 43 12 85 56 85 57 0 22 0 22 -23 -4 -24 -5 5 59 c2 32 8 65 13 73 l9 15 6 -22 6 -23 9 0 9 0 0 35 0 35 15 0 15 0 0 -15 0 -15 14 0 14 0 6 44 7 45 15 -6 14 -5 0 -15 0 -15 23 6 c12 3 41 6 65 6 l42 0 0 66 0 66 50 48 50 48 0 76 0 76 -15 0 -15 0 0 -15 0 -15 -15 0 -15 0 0 15 0 15 -20 0 -20 0 0 9 0 9 31 11 32 11 -6 50 -6 50 19 0 20 0 0 -15 0 -15 15 0 14 0 0 108 1 107 12 40 12 40 0 61 1 61 -32 36 -32 36 -7 81 -7 80 -33 0 -34 0 0 -60 0 -60 -10 0 -10 0 0 15 0 15 -10 0 -10 0 0 -29 0 -30 -33 -25 -33 -25 -52 -12 -52 -12 0 -14 0 -13 -10 0 -10 0 0 15 0 15 -10 0 -10 0 0 -20 0 -20 -9 0 c-5 0 -16 -3 -24 -6 l-15 -6 -4 21 -3 21 -28 -35 -28 -36 3 -10 3 -10 22 20 21 20 6 -6 6 -6 -17 -19 -16 -18 16 0 16 0 -6 -87 -6 -88 -9 -3 -8 -4 0 -19 0 -19 -15 0 -15 0 0 25 0 25 -25 10 -25 10 0 30 0 30 -20 0 -20 0 0 15 0 15 -16 0 -16 0 6 -34 7 -34 -11 -7 -10 -6 0 21 0 22 -12 -4 -13 -5 -3 -91 -3 -92 -9 0 -10 0 0 -15 0 -15 -9 0 -10 0 -4 18 -5 17 -1 -62 -1 -63 -15 0 -15 0 0 110 0 110 -20 0 -20 0 0 185 0 185 -14 0 -15 0 -4 -17 -5 -18 -1 18 -1 19 -32 -7 -33 -7 13 13 c6 7 12 17 12 22 l0 8 -10 -6 -10 -6 0 15 0 16 -10 0 -10 0 0 24 0 25 10 6 10 6 0 -9 0 -10 25 2 25 1 0 38 0 37 -15 0 -15 0 0 -15 0 -16 -45 3 -45 3 6 18 5 17 -33 0 -33 1 19 10 18 11 -13 9 -14 9 13 0 12 0 0 23 0 23 35 -4 35 -4 -15 28 c-8 16 -15 34 -15 41 l0 11 20 -5 20 -5 0 -14 0 -14 10 0 10 0 0 -20 0 -20 10 0 10 0 0 15 0 15 11 0 11 0 -6 -15 -5 -15 9 0 9 0 4 18 5 17 1 -17 1 -18 15 0 15 0 0 65 0 65 -14 0 -15 0 -25 24 -26 23 0 37 0 36 -40 0 -40 0 0 -34z m-62 -98 l-5 -13 -26 -3 -27 -3 0 10 0 10 23 4 c12 2 26 5 30 6 l9 1 -4 -12z m162 -13 c0 -3 -2 -5 -5 -5 -3 0 -5 2 -5 5 0 3 2 5 5 5 3 0 5 -2 5 -5z m-160 -66 l0 -20 -15 15 c-8 8 -15 17 -15 20 0 3 7 6 15 6 l15 0 0 -21z m-285 -9 l6 -10 -21 0 c-12 0 -34 -7 -50 -15 l-30 -16 0 11 0 10 14 0 c7 0 19 7 26 15 l12 15 19 0 18 0 6 -10z m231 -234 l11 -10 -11 -27 -10 -28 -23 -6 -23 -5 -20 12 -20 13 -20 -13 c-27 -16 -30 -15 -30 8 l0 20 10 0 c6 0 23 11 38 25 l27 26 30 -3 c17 -2 35 -7 41 -12z m37 -56 c-3 -11 -7 -20 -9 -20 -2 0 -4 9 -4 20 l0 20 9 0 9 0 -5 -20z m107 -60 l0 -39 17 -35 16 -35 -11 -26 -12 -26 -16 -6 -17 -6 -18 11 -19 12 -25 0 -25 0 0 10 0 10 35 0 34 0 7 35 6 36 -5 28 -6 28 6 22 5 21 14 0 14 0 0 -40z m635 -29 l-6 -11 -25 0 -24 0 0 9 0 10 28 3 c32 4 36 3 27 -11z m-892 -52 l29 -27 -11 -6 -10 -7 -29 15 -28 15 -13 27 -12 27 13 9 13 8 10 -17 c6 -9 23 -29 38 -44z m1052 35 l20 -11 3 -23 4 -22 -10 6 -10 6 -7 -17 -6 -18 6 -61 7 -61 -31 -6 -31 -6 0 -16 0 -15 -9 0 -10 0 -4 18 -5 17 -1 -36 -1 -37 -21 -5 -22 -6 6 -50 6 -51 -34 -26 -35 -26 0 -25 0 -25 15 12 15 12 0 -26 0 -26 13 0 12 -1 -30 -13 -30 -13 -31 9 c-17 4 -51 19 -76 32 l-44 23 -19 -13 -19 -14 -16 15 c-9 8 -22 15 -29 15 l-12 0 7 -11 6 -11 -30 16 -31 16 2 20 1 20 11 0 10 1 -19 10 -18 11 13 9 14 8 18 -17 19 -17 74 -1 74 -1 0 23 0 23 -11 7 -11 7 -7 -11 -7 -11 -19 1 c-11 0 -24 0 -30 -2 -5 -1 -20 1 -32 5 l-23 7 0 9 0 9 -20 0 -20 0 0 15 0 15 93 2 c50 0 99 1 107 2 l15 1 3 68 3 67 14 0 15 0 0 -62 0 -61 18 16 c23 21 32 21 32 2 l0 -15 10 0 10 0 0 80 0 80 -40 28 -39 27 -1 18 0 17 9 0 c5 0 14 -7 21 -15 l12 -15 47 6 c25 2 54 7 64 10 l17 5 0 38 0 37 12 12 12 12 5 -8 c3 -4 15 -12 26 -18z m-1273 -37 l40 6 -7 -22 -6 -21 10 0 11 0 0 -20 0 -20 15 0 15 0 0 -10 0 -10 32 0 32 0 -12 -12 c-7 -7 -12 -20 -12 -29 l0 -17 25 -6 25 -6 0 -15 0 -15 -15 0 -15 0 0 -22 c0 -13 -5 -30 -10 -38 l-10 -15 0 28 0 27 -9 0 c-5 0 -11 -7 -15 -15 l-5 -15 -21 0 -20 0 0 8 c0 4 5 13 12 20 l12 12 -22 0 -22 0 0 20 0 20 -20 0 -20 0 0 -19 0 -19 -14 -5 -14 -6 -5 20 -5 19 -20 0 -21 0 -5 9 -6 8 30 32 30 31 0 21 0 21 -16 -6 -17 -6 -18 16 -19 17 6 23 6 24 -13 0 -14 1 19 14 19 15 25 -25 25 -25 39 7z m333 -17 l15 0 0 -15 0 -15 -25 0 -25 0 0 -60 0 -60 -20 0 -20 0 0 29 0 30 -9 5 -9 6 11 24 12 25 17 5 18 4 0 29 1 28 10 -17 10 -18 14 0z m-75 -159 l24 -19 -24 -21 c-14 -11 -29 -20 -34 -21 -5 0 -15 -8 -22 -17 -17 -24 -23 -15 -17 25 l5 32 14 0 14 0 0 20 0 20 8 0 c4 0 18 -9 32 -19z m-330 -53 l0 -23 -10 15 c-13 19 -13 30 0 30 l10 0 0 -22z m1300 -29 l0 -10 -10 6 c-5 3 -10 11 -10 16 l0 10 10 -6 c6 -3 10 -11 10 -16z m-843 -26 l-7 -6 -7 6 -6 7 13 0 13 0 -6 -7z m-280 -80 l-7 -6 -7 6 -6 7 13 0 13 0 -6 -7z m1113 -7 c0 -8 -5 -18 -11 -21 l-10 -7 -6 6 -5 5 5 16 c4 8 11 15 17 15 l10 0 0 -14z m-63 -53 l-7 -6 0 13 0 13 7 -6 6 -7 -6 -7z m-580 -65 l-5 -13 -1 19 -1 19 6 -6 6 -6 -5 -13z m211 -36 l32 -24 0 -13 c0 -6 -9 -20 -20 -30 l-19 -18 -26 17 -25 16 0 30 0 29 -11 7 -11 7 13 8 13 8 11 -6 c5 -4 25 -18 43 -31z m-248 7 l0 -21 -15 12 c-8 7 -15 16 -15 21 l0 9 15 0 15 0 0 -21z m380 -31 c0 -14 -24 -9 -53 11 l-29 19 14 5 13 4 28 -15 c15 -9 27 -20 27 -24z m-683 -100 l-15 -8 -6 -36 -7 -35 -11 3 c-7 3 -14 10 -16 16 l-4 13 13 -3 13 -3 7 44 8 43 13 16 13 15 3 -28 4 -28 -15 -9z m734 6 l-10 -23 -42 -31 c-65 -47 -93 -40 -39 10 l30 28 0 21 0 21 14 0 14 0 13 16 12 15 10 -16 9 -17 -11 -24z m210 32 c-11 -13 -11 -14 -11 -66 l0 -40 -20 0 -20 0 0 58 0 57 9 -13 8 -14 6 21 5 21 16 -6 17 -6 -10 -12z m-440 -8 c-4 -12 -13 -24 -18 -25 l-10 -4 4 26 5 25 14 0 13 0 -8 -22z m-152 -105 l-1 -78 -10 55 -9 55 6 23 c10 41 15 22 14 -55z m475 -11 l5 -8 -34 -27 c-57 -46 -77 -33 -22 14 34 30 43 34 51 21z m-107 -41 l-26 -26 -4 -35 -4 -35 -9 25 -9 25 -6 -80 c-3 -44 -9 -91 -13 -105 l-7 -25 15 19 16 20 0 -21 0 -21 -35 -31 -36 -31 -14 0 -15 0 0 10 0 10 -20 0 -20 0 0 -8 c0 -5 -11 -14 -25 -20 l-24 -11 -7 10 -6 10 12 14 c7 8 18 15 24 15 6 0 39 23 74 50 l62 51 0 14 0 13 -12 4 -13 5 13 27 c6 15 12 36 12 46 l0 20 -20 0 -20 0 1 33 1 32 5 -17 4 -18 15 0 14 0 0 15 0 15 10 0 10 0 1 -17 0 -18 9 21 9 22 22 16 22 15 9 -6 10 -5 -25 -27z m-490 16 c4 -8 17 -19 28 -25 l20 -11 -19 -1 -18 0 7 -27 c10 -37 8 -64 -4 -76 l-11 -11 0 26 0 27 -9 6 -10 5 -6 -10 c-9 -15 -22 -12 -29 7 l-7 16 10 10 9 9 -5 14 -5 14 -14 0 -14 0 0 14 0 15 18 4 c9 3 25 5 34 6 l17 1 8 -13z m-393 -13 l6 -15 -10 6 c-6 3 -10 10 -10 16 0 14 7 11 14 -7z m104 -35 l20 -20 -5 -20 -5 -19 12 -15 12 -15 -6 -16 -6 -16 -15 6 -15 5 0 -16 0 -15 -16 13 -16 13 12 4 12 4 -13 9 -14 9 18 14 c21 16 22 26 2 26 l-15 0 0 -10 0 -10 -14 0 c-7 0 -19 6 -25 14 l-11 13 30 7 31 6 -2 17 c-3 39 2 42 29 12z m330 -142 l3 -17 -9 0 -10 0 -5 21 -5 20 11 -4 12 -4 3 -16z m423 -14 c-12 -20 -14 -14 -5 12 4 9 9 14 11 11 3 -2 0 -13 -6 -23z m-386 -98 l0 -20 -17 -3 -18 -3 0 19 0 20 -12 6 -13 5 30 -2 30 -2 0 -20z m-72 8 c-7 -2 -21 -2 -30 0 l-18 5 30 0 30 0 -12 -5z"/><path id="p3gE9zovF" d="M2490 2052 l0 -52 10 0 10 0 -7 48 c-8 64 -13 66 -13 4z"/><path id="p1GK6nrIg9" d="M2205 1670 c3 -5 11 -10 16 -10 l10 0 -6 10 c-3 6 -11 10 -16 10 l-10 0 6 -10z"/><path id="pS9xcTLcT" d="M2076 1051 l-19 -21 9 0 c5 0 15 4 23 9 l13 9 -4 12 -4 12 -18 -21z"/><path id="pk3KXlYhw" d="M1910 2654 l-40 -36 0 -39 0 -39 10 0 10 0 0 15 0 15 16 0 15 0 -6 -10 -6 -10 15 -16 16 -15 -14 -15 -14 -14 5 -19 c3 -11 14 -27 24 -37 l19 -17 25 13 c14 8 48 33 76 56 l50 43 17 -6 c9 -4 20 -11 24 -17 l8 -11 0 21 0 21 -23 21 c-12 11 -39 28 -60 37 l-37 15 -1 13 c-1 6 0 20 1 31 l2 19 -14 8 c-7 5 -28 9 -45 9 l-33 0 -40 -36z"/><path id="p12vLalcrd" d="M2186 2601 c22 -21 27 -21 18 3 l-6 16 -16 0 -15 0 19 -19z"/><path id="pBTPf0fC9" d="M2287 2613 c-4 -3 -7 -18 -7 -33 l0 -26 12 -12 12 -12 22 0 22 0 56 -46 56 -45 0 -15 0 -14 -15 0 -15 0 0 15 0 15 -27 0 -28 -1 18 -13 c9 -7 17 -18 17 -25 l0 -11 25 6 25 6 0 -16 0 -16 10 0 10 0 0 40 0 40 10 0 c5 0 9 -3 9 -7 -1 -5 -1 -16 0 -25 l1 -18 15 0 15 0 0 44 c0 24 -3 51 -6 60 l-6 16 -68 50 -67 50 -45 0 -45 0 -6 -7z"/><path id="pO1jPXl74" d="M2118 2603 l13 -5 9 -24 10 -24 15 0 15 0 0 10 c0 6 -9 19 -20 30 l-20 20 -17 -1 -18 -1 13 -5z"/><path id="pH1ExqiLI" d="M2107 2426 l-77 -71 0 -17 0 -18 -34 0 -34 0 2 15 c1 8 5 18 9 21 4 4 7 14 7 21 l0 14 -11 -7 -11 -7 -23 29 -24 29 -11 -11 c-6 -6 -16 -29 -21 -50 l-9 -39 0 -142 0 -143 15 0 15 0 0 15 0 15 15 0 15 0 2 -17 c1 -10 4 32 7 92 l6 110 40 3 40 3 -15 -11 -15 -10 17 0 17 0 -5 -36 -4 -36 14 5 14 6 6 -15 5 -14 -19 0 -19 0 -15 -15 -15 -15 -16 0 -17 0 8 -32 c4 -18 7 -43 7 -55 l-1 -23 51 2 52 1 22 15 c13 8 23 19 23 24 l0 9 -19 -6 -19 -6 -6 17 -7 17 11 11 c5 5 10 15 10 20 l0 10 -12 -12 c-14 -14 -38 -16 -38 -4 0 4 24 25 53 47 28 21 69 51 90 67 l37 29 10 -6 9 -6 -6 -14 -5 -15 18 0 19 0 47 38 47 37 1 26 c0 14 -3 28 -6 31 l-5 6 -20 -5 -21 -6 -9 -26 -10 -25 -9 13 -8 14 -40 -31 c-39 -31 -62 -40 -62 -24 0 4 25 27 55 51 l55 44 0 58 0 59 -15 0 -15 0 0 -14 0 -14 -17 -6 c-10 -3 -23 -9 -30 -12 l-12 -5 -3 34 -3 35 -78 -72z m-47 -200 c0 -3 -4 -8 -10 -11 l-10 -6 0 10 0 11 10 0 c6 0 10 -2 10 -4z m-39 -133 l-10 -18 -1 16 c0 17 10 32 18 25 2 -3 -1 -13 -7 -23z"/><path id="p1AFVnmlQA" d="M2380 2390 l0 -10 11 0 10 0 -6 10 c-3 6 -8 10 -11 10 -2 0 -4 -4 -4 -10z"/><path id="phwiHW8z1" d="M2000 2205 c0 -3 2 -5 5 -5 3 0 5 2 5 5 0 3 -2 5 -5 5 -3 0 -5 -2 -5 -5z"/><path id="pMENXlNyk" d="M2174 2198 l-7 -11 11 7 c12 7 16 16 8 16 -3 0 -8 -5 -12 -12z"/><path id="pN46IMop" d="M2360 2205 c0 -3 2 -5 5 -5 3 0 5 2 5 5 0 3 -2 5 -5 5 -3 0 -5 -2 -5 -5z"/><path id="pqLAjppgK" d="M2130 2165 c0 -3 2 -5 5 -5 3 0 5 2 5 5 0 3 -2 5 -5 5 -3 0 -5 -2 -5 -5z"/><path id="pUeaoOi2B" d="M2110 2025 c0 -3 2 -5 5 -5 3 0 5 2 5 5 0 3 -2 5 -5 5 -3 0 -5 -2 -5 -5z"/><path id="pz4eERLOz" d="M1570 1655 c7 -9 15 -13 17 -11 7 7 -7 26 -19 26 l-10 0 12 -15z"/><path id="p2ktFev7u" d="M1140 1590 l0 -10 20 0 20 0 0 10 0 10 -20 0 -20 0 0 -10z"/><path id="pN3Y2dYVC" d="M1370 1585 c0 -3 2 -5 5 -5 3 0 5 2 5 5 0 3 -2 5 -5 5 -3 0 -5 -2 -5 -5z"/><path id="p1FfDTzQ0e" d="M1410 1585 c0 -3 2 -5 5 -5 3 0 5 2 5 5 0 3 -2 5 -5 5 -3 0 -5 -2 -5 -5z"/></g></g><g id="l557mUQBHOsvOnXUOoUM9nb" fill="#3C3C3C" style="transform:none"><g><path id="pXfeCOzxt" d="M1793 3663 c20 -2 54 -2 75 0 l37 4 -75 0 -75 0 38 -4z"/><path id="pENBiqHpQ" d="M23 1855 l0 -70 4 38 c2 20 2 52 0 70 l-4 32 0 -70z"/><path id="pM3Q6flRL" d="M1788 43 c29 -2 74 -2 100 0 l47 3 -100 0 -100 0 53 -3z"/></g></g><g id="l2Hukyo9DX6xXvd4uXPWBj4" fill="#3F1753" style="transform:none"><g><path id="ponpLpC4H" d="M1497 2794 l-28 -15 -44 -61 -45 -60 0 -24 0 -23 15 5 15 6 0 -12 0 -12 28 7 27 6 26 25 25 24 17 0 17 0 0 -10 0 -9 35 1 35 1 0 24 0 23 -42 0 -43 1 28 22 27 23 0 37 0 37 -32 0 -33 -1 -28 -15z"/><path id="pdkaUVFQn" d="M1620 2771 l0 -41 14 0 c7 0 25 -9 39 -20 l25 -20 21 0 20 0 -5 15 -6 15 11 0 11 0 0 -15 0 -15 10 0 10 0 0 38 0 39 -20 18 -20 18 -55 5 -55 4 0 -41z"/><path id="pQq3Iu1ih" d="M1534 2616 l-19 -14 5 -6 6 -5 22 6 22 5 0 14 0 14 -8 0 c-5 0 -17 -6 -28 -14z"/><path id="pjTyOtxRY" d="M2137 2585 c10 -13 21 -25 25 -25 l7 0 -6 18 c-7 18 -22 32 -36 32 l-8 0 18 -25z"/><path id="pNjXmvEVA" d="M2180 2605 c0 -3 2 -5 5 -5 3 0 5 2 5 5 0 3 -2 5 -5 5 -3 0 -5 -2 -5 -5z"/><path id="phq2G8Rl1" d="M1575 2590 l-20 -8 18 -7 18 -7 5 5 c4 3 4 10 3 15 l-4 9 -20 -7z"/><path id="puePLDxir" d="M1466 2582 l-18 -4 6 -30 c3 -17 6 -37 6 -44 l0 -14 15 0 14 0 -5 15 -6 15 11 0 11 0 0 29 0 30 -7 4 c-5 2 -16 2 -27 -1z"/><path id="pZluW3Sdo" d="M2015 2580 l6 -9 -41 -27 -40 -27 0 -14 0 -14 8 5 c4 2 23 1 42 -4 l35 -8 -17 -1 -18 -1 0 -10 0 -10 23 0 24 0 16 18 c10 10 17 24 17 30 l0 12 -15 0 -15 0 0 25 0 25 15 0 15 0 0 10 0 10 -31 0 -30 0 6 -10z m15 -60 l0 -20 -15 0 -15 0 0 14 0 14 13 5 c6 3 13 6 15 6 1 1 2 -8 2 -19z"/><path id="pBISZV5VB" d="M1196 2564 c-3 -9 -6 -31 -6 -50 l0 -34 10 0 c5 0 14 8 19 18 l10 17 1 -18 0 -18 23 3 22 3 3 39 3 40 -16 -14 -15 -13 -7 7 -7 6 20 15 19 14 -36 1 -37 0 -6 -16z"/><path id="p19WsF0t4Y" d="M2120 2550 l0 -20 22 0 21 0 -18 20 c-10 11 -20 20 -22 20 -1 0 -3 -9 -3 -20z"/><path id="p1Fc8yiaWf" d="M1580 2535 l0 -25 13 0 12 -1 -30 -14 -30 -13 12 -1 12 -1 3 -20 3 -20 29 25 29 25 6 -6 6 -5 -24 -18 -23 -17 3 -20 4 -19 -8 -12 -8 -13 15 0 14 0 4 -11 4 -11 34 21 35 21 -17 0 -18 0 0 20 0 20 13 1 12 0 -20 9 -20 9 30 1 30 2 -12 4 -12 5 6 15 5 14 14 0 14 0 0 -15 0 -15 10 0 10 0 0 18 0 19 -20 18 -20 18 -34 -6 -34 -5 -6 14 -5 14 -21 0 -20 0 0 -25z"/><path id="pjVs4Lqnv" d="M2135 2509 l-7 -10 5 -6 6 -5 10 7 c6 3 11 10 11 16 0 12 -17 12 -25 -2z"/><path id="pihCzYyQ0" d="M2150 2465 l-23 -25 26 0 27 0 0 25 c0 14 -1 25 -3 25 -2 0 -14 -11 -27 -25z"/><path id="pBNADeS3X" d="M1780 2400 l0 -40 -40 6 -39 6 -25 -6 -25 -6 6 -16 6 -15 -19 -14 -19 -14 39 -1 40 0 28 27 28 27 0 -13 0 -12 21 6 21 7 -7 -22 -7 -22 13 4 14 5 3 66 3 67 -21 0 -20 0 0 -40z"/><path id="pDsf8NH7R" d="M1240 2363 l0 -46 7 6 6 7 13 -10 12 -11 -5 -18 -5 -19 -21 -6 -22 -5 22 -21 22 -20 17 0 17 0 -6 38 c-3 20 -9 47 -13 60 l-6 22 10 0 11 0 7 -22 c3 -12 15 -30 25 -41 l19 -20 -2 -26 -2 -26 -16 -12 c-8 -7 -18 -13 -22 -13 l-8 0 0 16 0 15 -17 -3 -18 -3 -3 -30 -3 -31 -19 -12 -20 -12 0 20 0 20 -10 0 -10 0 0 -30 0 -31 16 -6 16 -6 7 12 8 12 24 -5 24 -6 16 13 c8 6 19 21 24 32 l8 20 4 -17 4 -17 15 6 14 5 0 19 0 19 13 0 14 0 18 -20 18 -20 15 0 16 0 -20 14 -19 14 7 7 c4 4 19 8 33 8 l25 0 0 23 0 23 -12 7 -11 7 -12 -16 c-16 -22 -28 -21 -50 3 l-19 21 22 6 22 5 0 19 0 19 -9 0 c-6 0 -13 -5 -16 -11 l-7 -10 -13 5 -13 4 -10 -10 -10 -10 -6 20 -7 20 -19 5 -20 5 6 46 7 46 -17 0 -16 0 0 -16 0 -16 -12 5 -13 5 3 11 2 11 -15 0 -15 0 0 -47z"/><path id="pQDfEGZXW" d="M1932 2268 l1 -43 4 33 4 32 15 0 14 0 0 10 0 10 -20 0 -20 0 2 -42z"/><path id="p4H8spSoX" d="M2460 2278 l0 -32 -22 -23 c-26 -28 -21 -38 9 -15 l21 17 7 43 7 42 -11 0 -11 0 0 -32z"/><path id="pCr9ZxBgW" d="M2503 2275 l0 -40 4 23 c2 12 2 30 0 40 l-5 17 1 -40z"/><path id="pdjz1rmHQ" d="M1204 2286 c-3 -8 -4 -23 -2 -33 l4 -18 17 33 18 32 -16 0 -16 0 -5 -14z"/><path id="pp5Yi7zc3" d="M1640 2270 l0 -19 -12 -11 c-7 -6 -22 -17 -33 -24 l-19 -14 14 -18 15 -17 -13 -4 -12 -5 6 -9 6 -10 -29 3 -28 3 -12 15 -12 15 -1 -17 0 -18 -12 0 -11 0 18 -20 18 -20 -18 -20 -18 -20 22 0 22 0 4 -12 c2 -7 6 -39 10 -70 l6 -58 26 0 25 0 -12 15 -12 15 16 0 17 0 6 18 c4 9 11 20 17 24 l10 7 12 -10 11 -9 7 46 c3 26 6 55 6 65 l0 19 -10 0 -10 0 0 -15 0 -15 -16 0 -16 0 5 14 6 15 -22 3 -22 3 0 10 0 10 27 9 28 10 15 -20 14 -19 1 13 0 12 19 0 19 0 6 15 5 15 16 0 15 0 0 18 1 17 13 -17 c7 -10 16 -18 20 -18 l6 0 0 60 0 60 -6 0 c-4 0 -13 -8 -20 -17 l-13 -18 -1 19 0 19 -23 -21 -23 -22 -18 0 -18 0 5 20 5 20 -24 0 -24 0 0 -20z m20 -57 l-12 -18 6 18 c3 10 6 24 7 30 l1 12 4 -12 5 -12 -11 -18z m-70 -198 c0 -3 -2 -5 -5 -5 -3 0 -5 2 -5 5 0 3 2 5 5 5 3 0 5 -2 5 -5z"/><path id="p7jNrc2Qy" d="M2430 2265 c0 -3 2 -5 5 -5 3 0 5 2 5 5 0 3 -2 5 -5 5 -3 0 -5 -2 -5 -5z"/><path id="p16cuSZtLq" d="M2474 2195 l-19 -14 17 -1 17 0 6 11 c11 17 0 20 -21 4z"/><path id="pkGdyklRT" d="M2250 2135 l0 -35 10 0 10 0 0 35 0 35 -10 0 -10 0 0 -35z"/><path id="peoKxI49B" d="M2288 2153 l-5 -18 12 -35 12 -35 4 53 4 52 -11 0 -12 0 -4 -17z"/><path id="pA2hPK1Cb" d="M1490 2155 c0 -3 2 -5 5 -5 3 0 5 2 5 5 0 3 -2 5 -5 5 -3 0 -5 -2 -5 -5z"/><path id="pvBk1BQcK" d="M2026 2135 c-30 -23 -14 -27 19 -5 l30 20 -15 0 c-8 -1 -24 -7 -34 -15z"/><path id="prYeQTifa" d="M2060 2108 c-24 -22 -55 -47 -67 -55 l-23 -15 0 -104 0 -104 20 0 20 0 0 71 0 70 10 -6 10 -6 1 -67 2 -67 9 93 10 92 29 17 29 17 0 15 0 15 -12 -12 c-17 -17 -26 -15 -31 6 l-4 17 25 27 c40 43 22 41 -28 -4z"/><path id="p3v8EMZHs" d="M2320 2120 c0 -5 5 -10 10 -10 6 0 10 5 10 10 0 6 -4 10 -10 10 -5 0 -10 -4 -10 -10z"/><path id="pGIVVyxKd" d="M1030 2055 l0 -55 31 0 32 0 13 18 13 17 1 39 0 39 -18 -16 c-10 -10 -22 -17 -26 -17 l-8 0 6 15 5 15 -24 0 -25 0 0 -55z"/><path id="pDqICAiPj" d="M1310 2095 c0 -3 2 -5 5 -5 3 0 5 2 5 5 0 3 -2 5 -5 5 -3 0 -5 -2 -5 -5z"/><path id="pfyWplAWt" d="M1290 2085 c0 -3 2 -5 5 -5 3 0 5 2 5 5 0 3 -2 5 -5 5 -3 0 -5 -2 -5 -5z"/><path id="p1F26dPy6Y" d="M2325 2080 c3 -6 21 -16 38 -23 l32 -13 22 4 23 4 0 17 0 16 -61 3 -61 3 7 -11z"/><path id="p14JHcrOQp" d="M1265 2001 l-7 -60 7 -10 6 -11 -16 0 -17 0 6 -17 7 -16 -13 -9 c-7 -4 -16 -8 -20 -8 l-8 0 0 21 0 20 -10 -6 -10 -6 0 -37 0 -37 15 -29 c8 -15 15 -37 15 -47 l0 -19 14 0 c8 0 22 -3 32 -7 l17 -6 -5 14 -5 14 8 17 9 17 -8 5 -8 5 -14 -9 -14 -9 -13 17 -12 17 0 25 0 25 9 -23 10 -22 14 -6 15 -6 11 7 11 7 -12 14 -12 14 27 25 c29 26 31 37 16 66 l-11 19 9 0 c5 0 14 -11 20 -25 l12 -25 11 0 11 0 -6 16 -6 16 19 5 19 5 6 36 c3 21 6 47 6 60 l0 22 -10 0 -10 0 0 -15 0 -15 -10 0 -10 0 0 13 0 14 -44 1 -44 2 -7 -59z"/><path id="pUNGuREtN" d="M2470 1976 c0 -46 3 -91 6 -100 l6 -16 13 0 13 0 6 23 6 22 13 -23 13 -23 7 7 7 7 0 94 0 93 -15 0 -14 0 -7 -37 -8 -38 -9 38 -9 37 -14 0 -14 0 0 -84z"/><path id="p1CKkefN2o" d="M2100 2015 c0 -3 2 -5 5 -5 3 0 5 2 5 5 0 3 -2 5 -5 5 -3 0 -5 -2 -5 -5z"/><path id="pUB9ZKpsH" d="M1632 1873 l-13 -5 17 -19 18 -19 -12 -12 c-7 -7 -12 -18 -12 -25 l0 -13 26 0 26 0 -5 14 -5 14 11 11 11 11 -24 24 -25 24 -13 -5z"/><path id="p1DePlxPlw" d="M1700 1868 c0 -7 5 -20 10 -28 l10 -15 0 22 0 22 -10 6 -10 6 0 -13z"/><path id="pdHzyAU1T" d="M2070 1745 l0 -24 20 -11 21 -11 20 6 20 7 15 -13 15 -12 24 13 25 13 0 24 0 23 -10 0 -10 0 0 -15 0 -15 -27 1 c-16 1 -40 3 -55 6 l-28 5 0 14 0 14 -15 0 -15 0 0 -25z"/><path id="p1A9Bgobwi" d="M1070 1682 l0 -48 12 -12 12 -12 24 0 23 0 -6 20 -6 20 15 -6 16 -6 0 28 c0 16 -5 36 -10 44 l-9 15 -13 -13 c-6 -6 -16 -12 -21 -12 l-9 0 6 15 5 15 -19 0 -20 0 0 -48z"/><path id="pYKealzmw" d="M2328 1722 l-48 -3 0 -23 0 -23 18 -16 c10 -10 24 -17 31 -17 16 0 103 62 96 68 -2 3 -11 -1 -20 -8 l-15 -12 0 15 c0 21 -6 23 -62 19z"/><path id="p1DzXT7yPA" d="M2463 1703 l7 -6 7 6 6 7 -13 0 -13 0 6 -7z"/><path id="pGl9jEqM3" d="M1364 1675 l20 -15 -8 -7 -7 -7 -19 12 c-11 7 -24 12 -30 12 l-10 0 0 -20 0 -19 14 5 14 5 7 -10 6 -11 24 0 24 0 15 16 c9 8 16 19 16 23 0 10 -46 31 -68 31 l-17 -1 19 -14z"/><path id="p9C4CA7hN" d="M2418 1662 c-16 -10 -28 -20 -28 -24 l0 -8 17 0 17 0 -20 -15 -19 -14 25 0 25 0 23 18 c12 11 22 24 22 29 l0 10 -22 -6 -21 -5 6 16 c4 10 5 17 4 16 -1 0 -14 -8 -29 -17z"/><path id="pNNa3qUoj" d="M1739 1651 l-15 -17 4 -12 4 -12 -16 0 c-9 0 -19 1 -23 3 l-8 2 2 18 3 17 -23 -1 c-12 0 -31 -4 -41 -8 l-20 -8 12 -7 12 -7 0 -24 0 -24 21 -11 20 -11 27 2 27 3 13 -8 12 -7 -5 -9 -5 -8 17 3 c10 2 28 4 40 4 l22 1 4 33 4 32 1 -47 2 -47 -24 -26 -25 -27 -10 7 -11 6 0 -35 0 -36 14 0 14 0 4 -29 4 -30 -19 11 -20 10 7 -32 c3 -18 6 -37 6 -42 l0 -10 15 6 15 5 0 -19 0 -20 9 0 10 0 4 18 5 17 1 -47 1 -48 19 0 20 0 4 18 5 17 1 -17 1 -18 15 0 15 0 0 16 0 17 74 -5 75 -5 14 15 15 14 12 -4 13 -4 -17 -17 -17 -17 13 0 c8 0 19 5 26 12 l12 12 0 67 0 67 42 31 42 31 -16 0 -15 0 -43 -32 -44 -31 -4 11 -4 12 -14 0 -14 0 0 -70 0 -70 -49 0 c-26 0 -69 -3 -95 -6 l-46 -7 0 202 0 201 -19 0 -19 0 -5 -12 -5 -13 -1 22 -1 22 -17 -6 -16 -6 5 21 6 22 -21 -1 -22 -1 -16 -17z"/><path id="pBKxgCFSn" d="M2245 1640 l18 -20 14 0 13 0 0 10 0 10 -15 0 -15 0 0 10 0 10 -17 0 -16 0 18 -20z"/><path id="p1HRT8jm3E" d="M2062 1638 l5 -13 59 -42 c32 -23 65 -42 73 -43 l14 0 -38 30 c-38 30 -37 42 1 16 l21 -15 35 8 35 8 19 -15 19 -14 -12 -5 -13 -5 0 -84 0 -85 -16 -6 c-18 -7 -85 -76 -79 -81 3 -4 66 38 113 76 l24 18 3 45 c3 24 7 70 11 102 l6 57 -24 0 -23 0 -38 20 -37 20 -23 0 -23 0 -11 -11 -12 -12 -18 8 c-10 5 -20 9 -23 9 -3 1 -16 8 -29 15 l-23 13 4 -14z"/><path id="pnawbAk29" d="M1240 1630 l0 -10 -25 6 -25 6 0 -6 c0 -3 9 -15 20 -26 l20 -20 30 15 30 16 0 14 0 15 -25 0 -25 0 0 -10z"/><path id="p18HIBJ9mu" d="M1881 1428 l1 -193 5 13 5 12 19 0 19 0 0 -10 0 -10 46 0 45 0 13 13 13 12 5 68 6 67 -14 0 -14 0 0 -55 0 -56 -62 3 -63 3 -3 163 -2 162 -10 0 -10 0 1 -192z"/><path id="p5j05u8Ky" d="M1440 1579 c0 -28 -21 -79 -32 -79 -5 0 -8 -7 -8 -15 l0 -15 -20 0 -20 0 -6 24 -6 25 -24 15 c-29 20 -34 20 -34 2 l0 -14 16 -13 c9 -7 20 -24 25 -36 l9 -23 25 6 25 6 0 -16 0 -16 15 0 15 0 0 31 0 32 18 13 c9 7 21 14 25 14 l8 0 -7 -12 -7 -11 24 6 c13 4 27 7 32 7 l7 0 -6 25 -6 25 16 -6 16 -6 0 26 0 26 -8 0 c-4 0 -14 -6 -21 -12 l-13 -13 -5 13 c-3 6 -9 12 -14 12 l-9 0 0 -17 0 -17 -15 20 -14 19 -1 -26z"/><path id="ppHfw7x8u" d="M2060 1591 c0 -12 48 -46 55 -39 3 2 -9 14 -25 27 l-30 22 0 -10z"/><path id="pPEU3B6vD" d="M1090 1555 l0 -36 15 -28 14 -29 41 -32 40 -32 0 -19 0 -19 10 0 10 0 0 11 c0 7 10 20 22 31 l22 19 13 -5 13 -5 0 5 c0 15 -28 54 -71 101 -27 28 -49 57 -49 62 l0 11 -15 0 -15 0 0 -15 0 -15 -10 0 -10 0 0 15 0 15 -15 0 -15 0 0 -35z"/><path id="p7Uxqa51n" d="M1190 1571 l0 -21 10 0 10 0 0 14 c0 8 -4 18 -10 21 l-10 6 0 -20z"/><path id="pI7gfh0mX" d="M1622 1545 l27 -25 23 0 23 0 -44 25 c-55 32 -63 32 -29 0z"/><path id="pdZAIxPJF" d="M1570 1496 l0 -18 -15 12 -15 12 0 -21 0 -21 -10 0 -10 0 0 -15 0 -15 -14 0 -15 0 -3 -22 -3 -23 9 -27 10 -28 33 0 32 0 6 10 6 10 -20 0 -21 0 0 11 0 11 21 5 21 6 -5 23 -4 24 31 0 31 1 -17 13 c-10 7 -24 26 -33 42 l-15 29 0 -19z"/><path id="pfBV4MB6S" d="M1760 1485 c0 -3 2 -5 5 -5 3 0 5 2 5 5 0 3 -2 5 -5 5 -3 0 -5 -2 -5 -5z"/><path id="p1BBwnHx2O" d="M1326 1443 c-3 -4 -6 -10 -6 -15 l0 -8 20 0 20 0 0 9 c0 5 -6 11 -14 14 l-14 6 -6 -6z"/><path id="ps1JCe5dd" d="M1450 1410 l0 -13 7 6 6 7 -6 7 -7 6 0 -13z"/><path id="p1GdWaXQMz" d="M1416 1349 c-3 -17 -6 -35 -6 -40 l0 -9 14 0 14 0 6 -15 5 -15 -6 -16 -6 -15 39 3 39 3 3 40 3 40 -14 -19 -14 -19 -11 7 -12 7 0 17 -1 17 -18 23 c-25 29 -27 28 -35 -9z"/><path id="pMYkQzFNw" d="M2178 1359 l-28 -21 1 -26 0 -27 9 22 9 22 25 17 c25 15 35 34 19 34 -5 0 -20 -10 -35 -21z"/><path id="px3hwnAsy" d="M2285 1330 l-6 -10 10 0 11 0 0 10 c0 6 -2 10 -4 10 -3 0 -8 -4 -11 -10z"/><path id="pMmc2fkgU" d="M1690 1206 c0 -19 4 -46 9 -59 l10 -25 -22 -8 -22 -7 35 -4 35 -5 7 -11 8 -12 9 13 8 13 16 -15 c8 -9 20 -16 26 -16 l11 0 0 75 0 75 -10 0 -10 0 0 -15 c0 -17 -9 -19 -28 -7 l-13 9 7 16 6 17 -11 0 -12 0 -9 -22 -9 -23 -7 23 -6 22 -14 0 -14 0 0 -34z m110 -41 c0 -3 -2 -5 -5 -5 -3 0 -5 2 -5 5 0 3 2 5 5 5 3 0 5 -2 5 -5z"/><path id="pywkIX2u8" d="M1340 1058 l0 -38 25 0 25 0 0 -14 0 -14 66 -7 66 -7 6 6 6 6 -20 15 -19 14 18 1 17 0 0 13 0 14 -54 13 -54 13 -27 -7 -27 -7 -14 18 -13 18 -1 -37z m150 -38 l0 -10 -15 0 -15 0 0 10 0 10 15 0 15 0 0 -10z"/><path id="p1HE3NGUbo" d="M1810 1006 l0 -18 -17 6 -16 7 -19 -21 -19 -20 -13 0 c-7 0 -30 11 -50 25 l-37 25 -37 0 -37 -1 18 -10 c9 -5 17 -15 17 -20 l0 -10 -20 6 -20 6 0 -23 1 -23 47 -30 47 -30 65 -3 66 -4 32 30 32 30 0 46 0 46 -10 0 -10 0 0 -12 0 -13 -10 15 -10 15 0 -19z"/></g></g><g id="l7J72z1AnOgQbNNV1xmzFeZ" fill="#280739" style="transform:none"><g><path id="p1C3IDTkfu" d="M1530 2789 l0 -21 15 6 15 5 0 -10 c0 -5 -7 -12 -15 -15 -8 -4 -15 -10 -15 -15 l0 -9 44 0 c24 0 58 3 75 6 l31 7 0 8 0 9 -15 0 -15 0 0 10 0 10 15 0 15 0 0 15 0 15 -75 0 -75 0 0 -21z"/><path id="pTnQch11i" d="M2010 2755 c0 -3 2 -5 5 -5 3 0 5 2 5 5 0 3 -2 5 -5 5 -3 0 -5 -2 -5 -5z"/><path id="p1FoD1Izh7" d="M2040 2718 l0 -13 58 -37 c31 -21 72 -51 90 -69 l32 -31 0 -14 0 -14 15 0 15 0 0 9 c0 5 -3 16 -6 25 l-6 16 -49 36 c-27 20 -49 40 -49 45 l0 9 13 0 c7 0 28 -11 47 -25 l33 -24 8 5 c14 8 11 19 -12 48 l-21 27 -13 -17 -12 -18 -12 22 -12 22 -20 0 -20 0 3 -17 3 -18 -20 0 -20 0 -3 23 -3 22 -20 0 -19 0 0 -12z"/><path id="pj6DZiKQl" d="M2266 2665 c8 -62 14 -70 14 -19 l0 39 -10 15 -10 15 6 -50z"/><path id="p9eBvcnH8" d="M2000 2682 c0 -9 4 -23 9 -31 l9 -13 21 7 21 6 42 -35 c41 -35 58 -44 58 -28 0 7 -21 22 -117 84 l-43 28 0 -18z"/><path id="pgTbp69Qx" d="M1500 2645 c0 -3 2 -5 5 -5 3 0 5 2 5 5 0 3 -2 5 -5 5 -3 0 -5 -2 -5 -5z"/><path id="p19j0SIgeu" d="M1650 2620 c8 -5 24 -10 35 -10 l20 0 -15 10 c-8 5 -24 10 -35 10 l-20 0 15 -10z"/><path id="prOBvb0LP" d="M1855 2620 c-4 -6 -9 -60 -12 -120 l-6 -110 16 0 16 0 7 -22 c3 -12 13 -28 20 -36 l14 -13 0 23 0 24 15 21 15 21 -25 20 -25 20 0 60 0 60 26 31 26 31 -41 0 -40 0 -6 -10z"/><path id="pUhOvR5tR" d="M1525 2609 c-4 -6 -5 -12 -2 -15 7 -7 37 7 37 17 l0 9 -14 0 c-8 0 -18 -5 -21 -11z"/><path id="pmxckvgWv" d="M1943 2586 l-38 -34 7 -7 6 -6 41 27 c42 27 49 38 31 49 l-9 6 -38 -35z"/><path id="pITB4df3U" d="M2068 2588 l22 -24 0 -23 0 -23 16 6 16 6 5 -20 6 -21 11 4 11 4 3 17 4 17 -19 21 c-10 11 -36 29 -58 40 l-40 20 23 -24z"/><path id="p8BQ6eO0B" d="M1578 2592 l-16 -7 19 -39 c23 -47 23 -46 4 -46 l-15 0 0 -32 0 -31 23 21 c22 21 86 52 107 52 l10 0 12 -27 12 -28 4 23 4 24 -18 19 c-9 10 -25 21 -35 24 -11 4 -19 10 -19 15 l0 8 28 8 27 7 -45 8 c-56 9 -80 10 -102 1z"/><path id="pxdKBoac3" d="M2271 2584 l1 -19 5 13 5 13 -6 6 -6 6 1 -19z"/><path id="pyrmvEuWM" d="M2396 2558 c16 -12 35 -26 42 -31 l12 -9 0 10 0 10 -34 21 c-44 28 -56 27 -20 -1z"/><path id="p7uSy2Qeb" d="M2292 2553 l3 -17 32 -7 32 -6 50 -43 51 -42 0 -98 0 -99 -35 -27 -36 -27 -49 -5 -50 -5 0 -28 0 -29 10 0 10 0 0 19 0 18 38 7 39 6 34 23 34 23 12 34 12 35 0 82 1 82 -22 25 c-26 29 -135 96 -156 96 l-13 0 3 -17z"/><path id="p18M3zaIXy" d="M1751 2528 c1 -13 5 -34 9 -48 l8 -25 1 42 1 42 -10 6 -10 6 1 -23z"/><path id="ps5gd83Yc" d="M1955 2528 c-16 -12 -33 -26 -36 -31 l-7 -9 5 -18 c3 -10 14 -26 24 -36 l19 -17 24 13 c14 7 41 26 60 42 l36 29 0 13 0 13 -25 -5 -25 -4 0 -14 0 -15 -17 -6 c-10 -4 -23 -13 -29 -22 l-11 -14 -17 6 -16 6 0 16 0 16 15 5 15 6 -5 9 -6 8 18 9 18 9 12 -4 11 -4 7 10 6 11 -23 0 -23 -1 -30 -21z"/><path id="p13VgSimTZ" d="M2263 2513 l7 -6 7 6 6 7 -13 0 -13 0 6 -7z"/><path id="pzDRQiPe2" d="M2320 2495 c0 -3 2 -5 5 -5 3 0 5 2 5 5 0 3 -2 5 -5 5 -3 0 -5 -2 -5 -5z"/><path id="pNfAma7ZP" d="M2352 2475 l16 -17 12 4 12 4 -28 13 -29 12 17 -16z"/><path id="p16ghiQAHS" d="M1633 2465 l-33 -14 0 -11 0 -10 16 0 16 0 -12 -15 -12 -15 23 0 c13 0 34 3 47 6 l22 6 0 13 0 13 -27 10 -28 10 30 1 30 1 -15 10 c-19 12 -18 12 -57 -5z"/><path id="pRGOBJWbw" d="M2065 2458 c-16 -12 -54 -39 -82 -61 l-53 -39 0 -37 0 -37 40 4 40 4 0 24 0 24 23 9 c12 5 46 32 76 60 30 28 59 53 65 55 l11 4 -16 1 -16 1 -55 -49 c-31 -26 -70 -58 -87 -70 l-31 -22 -11 6 -10 7 17 19 c9 10 22 19 28 19 6 0 36 23 66 50 l55 49 -15 0 c-8 0 -28 -9 -45 -21z"/><path id="p6oml8nNT" d="M2498 2398 c4 -143 9 -157 10 -35 l2 117 -7 0 -8 0 3 -82z"/><path id="pHUQZgxCl" d="M2195 2376 c-11 -12 -31 -28 -45 -37 l-25 -17 6 -6 6 -6 36 27 c31 24 53 52 45 57 -2 1 -12 -7 -23 -18z"/><path id="plD9flazM" d="M2246 2375 l-6 -24 -48 -32 c-49 -33 -72 -56 -72 -72 l0 -9 38 28 c20 15 61 48 90 73 l53 44 -13 8 c-7 5 -18 9 -24 9 l-12 0 -6 -25z"/><path id="pOPIqc6x8" d="M1575 2350 c-8 -16 -15 -35 -15 -41 l0 -13 35 34 35 34 -13 8 c-20 13 -26 10 -42 -22z"/><path id="p19F5L02qH" d="M1241 2328 l1 -23 5 13 5 12 9 -6 9 -5 0 -35 0 -34 -17 -1 -18 -1 13 -5 12 -5 0 -29 0 -29 11 0 11 0 -12 -15 -12 -15 15 0 15 0 6 16 c10 25 7 90 -6 139 l-12 45 -18 0 -18 0 1 -22z"/><path id="pc7Nu9aCI" d="M1301 2334 l1 -19 5 13 5 13 -6 6 -6 6 1 -19z"/><path id="pf5sDxl8w" d="M2300 2335 c0 -3 2 -5 5 -5 3 0 5 2 5 5 0 3 -2 5 -5 5 -3 0 -5 -2 -5 -5z"/><path id="plfKr3ZdW" d="M2365 2319 c-11 -17 1 -21 15 -4 l12 15 -10 0 c-6 0 -14 -5 -17 -11z"/><path id="pADyuM3p1" d="M2195 2263 c-38 -30 -87 -66 -107 -79 l-38 -24 -42 -1 -43 -2 50 -7 50 -7 35 27 c19 15 60 45 91 68 31 23 64 51 74 62 l18 20 -9 0 c-5 -1 -40 -26 -79 -57z"/><path id="p932spd1y" d="M1336 2302 l-6 -11 10 -43 c5 -24 10 -60 10 -80 l0 -37 14 5 14 5 7 -21 6 -20 -6 -31 c-8 -38 -43 -99 -56 -99 l-9 0 25 47 c14 27 25 52 25 57 l0 9 -22 -19 -21 -19 5 20 c3 11 9 28 13 38 l7 18 -36 -22 -36 -21 0 -18 0 -19 -10 -6 -10 -6 0 -44 0 -44 20 -6 20 -6 0 -25 0 -24 10 0 10 0 0 15 c0 9 -7 29 -15 46 l-16 30 28 -7 c15 -4 32 -11 37 -15 6 -5 17 -9 25 -8 l16 1 -12 5 -13 5 0 16 c0 10 7 25 14 35 l13 17 18 0 18 0 -7 43 -7 42 -12 10 -12 10 -3 29 -3 28 13 -4 c7 -3 23 -20 36 -39 13 -19 27 -35 33 -37 l9 -4 0 16 0 16 -25 22 -25 22 0 12 0 13 -25 19 -25 20 0 23 0 22 -7 -7 -7 -7 -12 22 -11 22 -7 -11z m-29 -289 l-7 -6 0 13 0 13 7 -6 6 -7 -6 -7z"/><path id="pWiizIK3f" d="M1604 2288 l-19 -23 23 19 c21 18 27 26 19 26 -2 0 -12 -10 -23 -22z"/><path id="pMrhBwS1M" d="M2400 2295 l-13 -16 16 -17 17 -16 11 11 11 11 -4 18 -3 17 -11 4 -11 4 -13 -16z"/><path id="pVnX9vTVL" d="M1417 2294 c-4 -4 -7 -13 -7 -21 l0 -13 21 0 20 0 -3 17 c-3 18 -20 27 -31 17z"/><path id="pQ0147p6a" d="M2269 2267 l-34 -23 -3 -23 -4 -22 41 26 40 27 -2 19 c-1 10 -2 19 -3 19 0 0 -16 -10 -35 -23z"/><path id="pTMucmojW" d="M1210 2265 c0 -8 2 -15 4 -15 2 0 6 7 10 15 l5 15 -9 0 -10 0 0 -15z"/><path id="pBRnIaGZ0" d="M1930 2255 c0 -3 2 -5 5 -5 3 0 5 2 5 5 0 3 -2 5 -5 5 -3 0 -5 -2 -5 -5z"/><path id="pVn4opWSF" d="M2028 2245 l33 -15 -7 -12 -8 -12 -4 12 c-2 7 -8 12 -14 12 l-10 0 6 -16 6 -16 -15 6 -15 5 0 -14 0 -15 19 0 18 0 29 22 c16 12 31 24 34 26 3 2 -4 10 -14 18 l-20 14 -35 0 -36 -1 33 -14z"/><path id="p18wy6xa9U" d="M1470 2235 c0 -3 2 -5 5 -5 3 0 5 2 5 5 0 3 -2 5 -5 5 -3 0 -5 -2 -5 -5z"/><path id="p12MDUg614" d="M2294 2208 l-5 -8 40 0 c51 0 53 6 5 12 l-35 4 -5 -8z"/><path id="pZZbockiv" d="M2135 2169 c-27 -21 -52 -44 -54 -51 l-4 -13 37 28 37 29 14 -6 c25 -9 17 -22 -37 -70 l-52 -45 -18 16 -18 16 0 -41 0 -40 23 18 c12 11 47 38 77 62 l54 44 7 33 7 34 -5 14 c-7 18 -11 16 -68 -28z"/><path id="p1CiscIYjm" d="M1317 2167 l-15 -35 -18 -10 -19 -10 8 -8 7 -7 25 13 25 13 6 34 6 34 -5 6 -6 5 -14 -35z"/><path id="pWDaPyas2" d="M1605 2190 l-20 -9 15 0 c8 0 22 4 30 9 l15 10 -10 -1 c-5 0 -19 -4 -30 -9z"/><path id="p7up4dPUO" d="M1694 2185 l-6 -15 -19 0 c-22 0 -23 -4 -9 -31 l11 -19 19 0 20 0 0 40 c0 41 -6 51 -16 25z"/><path id="pwqJNVcwI" d="M2451 2180 l-23 -20 14 0 15 0 18 20 18 20 -9 0 c-5 -1 -20 -10 -33 -20z"/><path id="p5e0KtXVq" d="M2262 2150 l0 -35 5 18 c2 9 2 25 0 35 l-5 17 0 -35z"/><path id="pl7JXesp4" d="M1490 2146 c0 -8 5 -18 10 -21 l10 -6 0 20 0 21 -10 0 -10 0 0 -14z"/><path id="pVrte3PEX" d="M1582 2137 l-32 -24 7 -6 c3 -4 22 -7 42 -6 l36 0 -25 10 -25 10 25 19 25 20 -11 0 c-5 0 -24 -11 -42 -23z"/><path id="pUoJuwy4S" d="M1182 2141 l-14 -8 23 -22 23 -21 14 0 14 0 -6 13 c-3 6 -9 20 -12 30 l-6 17 -12 0 c-6 0 -17 -4 -24 -9z"/><path id="puBjb2BgP" d="M2380 2135 c0 -3 2 -5 5 -5 3 0 5 2 5 5 0 3 -2 5 -5 5 -3 0 -5 -2 -5 -5z"/><path id="pmvUwscn" d="M2187 2082 c-9 -10 -17 -25 -17 -33 l0 -13 21 21 21 21 -4 12 -4 12 -17 -20z"/><path id="pqu4GcFrn" d="M1588 2074 l9 -17 -4 -46 -3 -46 11 23 12 22 12 0 c6 0 16 -5 23 -12 l12 -12 0 49 0 48 -18 -16 c-10 -10 -21 -17 -24 -17 l-6 0 5 20 5 20 -21 0 -22 0 9 -16z"/><path id="pUb3uEEHt" d="M1040 2025 l0 -55 10 0 10 0 0 -25 0 -25 20 0 20 0 0 -10 0 -11 21 20 21 20 -6 26 -6 25 10 20 11 20 -10 0 -10 0 -9 -32 -8 -33 -14 0 -15 0 -3 18 -3 17 14 0 15 0 7 30 6 30 -6 10 c-8 13 -25 13 -25 -1 0 -6 -7 -17 -15 -25 l-15 -15 0 25 0 26 -10 0 -10 0 0 -55z"/><path id="p1HCIpLzKX" d="M1500 2075 c0 -3 2 -5 5 -5 3 0 5 2 5 5 0 3 -2 5 -5 5 -3 0 -5 -2 -5 -5z"/><path id="pCY94SBf9" d="M2405 2024 c14 -20 25 -43 25 -50 0 -7 5 -16 10 -19 l10 -6 0 55 0 56 -35 0 -34 0 24 -36z"/><path id="pTAaD09MI" d="M2473 2005 l0 -60 4 33 c2 18 2 45 0 60 l-4 27 0 -60z"/><path id="pt0JWr9Ma" d="M2112 2028 c-7 -7 -12 -16 -12 -20 l0 -8 20 0 20 0 0 20 0 20 -8 0 c-4 0 -13 -5 -20 -12z"/><path id="p1GIV2SqZT" d="M1560 1983 l0 -43 10 0 10 0 0 28 0 27 -10 15 -10 15 0 -42z"/><path id="p1BK872tOU" d="M1150 1986 c0 -8 5 -18 10 -21 l10 -6 0 20 0 21 -10 0 -10 0 0 -14z"/><path id="p81WPI6r8" d="M2041 1943 l-1 -42 11 -28 10 -28 26 -24 25 -24 101 6 101 6 10 18 11 18 5 68 5 67 -20 0 -20 0 3 -75 4 -75 -10 0 c-6 0 -16 8 -21 18 l-11 17 -18 -23 -17 -22 -50 6 c-28 3 -60 7 -72 10 l-23 4 -17 27 -17 26 -7 46 -6 46 -2 -42z"/><path id="p16hQnJKGf" d="M2360 1975 c0 -3 2 -5 5 -5 3 0 5 2 5 5 0 3 -2 5 -5 5 -3 0 -5 -2 -5 -5z"/><path id="p16KQEOm24" d="M2076 1952 l-7 -22 18 -38 18 -37 18 -3 17 -3 0 25 0 25 -22 3 -23 3 -5 35 -6 35 -8 -23z"/><path id="p1AEfPwDAE" d="M1130 1910 l0 -10 20 0 20 0 0 10 0 10 -20 0 -20 0 0 -10z"/><path id="pClnbiuNR" d="M1335 1910 c3 -5 10 -10 16 -10 5 0 9 5 9 10 l0 10 -16 0 -15 0 6 -10z"/><path id="puLtJFKg4" d="M2441 1885 l-1 -40 18 -42 17 -43 13 0 12 0 0 10 0 9 18 -6 17 -6 -37 37 -38 37 -5 22 c-2 12 -6 31 -8 42 l-5 20 -1 -40z"/><path id="pzJPuo5Hd" d="M2471 1888 l-1 -38 40 -26 40 -27 8 8 7 7 -37 32 -37 33 -10 24 -10 24 0 -37z"/><path id="pg4N1gHxc" d="M1364 1885 l-19 -14 23 -1 22 0 0 15 c0 19 -1 19 -26 0z"/><path id="paUWOxYcy" d="M2539 1872 c6 -9 22 -28 36 -41 l25 -23 0 39 0 40 -35 1 -35 1 9 -17z"/><path id="p18CM0Tlpx" d="M1422 1868 l-12 -12 0 -20 0 -20 16 22 15 23 -3 10 -3 10 -13 -13z"/><path id="pIz2QIEIr" d="M2183 1853 c9 -2 23 -2 30 0 l12 5 -30 0 -30 0 18 -5z"/><path id="p3Xk9idfu" d="M2361 1843 l-1 -22 -26 -20 -27 -21 20 0 20 0 12 24 13 23 -5 19 -5 19 -1 -22z"/><path id="pnV2dUoSE" d="M1450 1835 l-12 -15 10 0 10 0 4 -45 3 -45 -7 0 c-5 0 -8 7 -8 15 l0 15 -10 0 -10 0 0 -34 0 -35 22 -15 c12 -9 26 -16 31 -16 l8 0 -5 9 -6 9 12 5 13 4 -14 16 -13 17 7 27 7 28 8 -21 8 -21 27 -21 27 -21 -6 -9 -6 -9 21 -19 20 -18 9 14 10 15 -18 13 -17 13 23 5 22 6 0 19 0 19 -45 0 -45 0 0 38 0 37 -9 14 -9 13 -10 -28 -10 -29 -7 33 -7 32 -8 0 c-4 0 -13 -7 -20 -15z"/><path id="pMX3JZuOA" d="M2411 1833 c-1 -26 18 -73 30 -73 l8 0 -6 18 c-3 9 -9 22 -13 27 -5 6 -10 19 -13 30 l-5 20 -1 -22z"/><path id="pyi9LIv6" d="M1230 1766 l0 -25 -32 -3 -33 -3 -6 -45 c-8 -54 -3 -63 11 -24 5 16 14 36 19 44 l8 15 41 5 41 5 -25 28 -24 28 0 -25z"/><path id="p1A4aSpMBB" d="M1270 1770 l-15 -10 12 0 c6 0 15 5 18 10 8 12 4 12 -15 0z"/><path id="pqpeZ8nAq" d="M2268 1773 l12 -5 13 5 12 5 -25 0 -25 0 13 -5z"/><path id="p5GPFgY4s" d="M1367 1738 l17 -33 4 18 4 18 -12 14 c-7 8 -17 15 -21 15 l-10 0 18 -32z"/><path id="p1ExB2O8yg" d="M1829 1678 l-1 -83 -5 18 -4 17 -10 0 -9 0 -6 -27 -7 -27 11 -4 12 -4 -6 -9 -5 -9 10 0 10 0 4 23 4 22 2 -22 1 -23 10 0 10 0 10 26 10 25 0 80 0 79 -20 0 -20 0 -1 -82z"/><path id="pm2Q50azm" d="M1880 1660 l0 -100 10 0 10 0 0 100 0 100 -10 0 -10 0 0 -100z"/><path id="p18iZWM2LP" d="M2000 1732 l0 -18 -12 -12 c-6 -6 -10 -13 -7 -15 2 -2 29 -22 60 -45 l57 -41 -5 19 c-3 11 -8 20 -12 20 -4 0 -16 6 -26 14 l-19 14 12 15 13 15 -26 26 c-31 31 -35 32 -35 8z"/><path id="ppjJ3jjcT" d="M2066 1729 l18 -21 4 12 4 12 -13 9 c-8 5 -18 9 -23 9 l-9 0 19 -21z"/><path id="pMtMsQyD5" d="M2207 1735 l-7 -16 -22 1 c-13 1 -31 2 -40 1 l-18 -1 0 -10 0 -9 15 5 14 6 61 -46 c33 -25 65 -46 70 -46 22 0 8 17 -37 44 l-47 28 18 13 18 14 -10 16 -9 17 -6 -17z"/><path id="pOTpJUPFt" d="M2298 1743 c12 -2 32 -2 45 0 l22 4 -45 0 -45 0 23 -4z"/><path id="paxGL0VFd" d="M1320 1729 c0 -6 21 -31 47 -56 l47 -46 4 12 4 12 14 -12 14 -12 6 6 5 5 -26 19 c-15 10 -44 33 -65 51 -40 34 -50 38 -50 21z"/><path id="p75Z5L3Um" d="M2376 1731 l-9 -13 -53 4 -53 5 -4 -18 -5 -18 33 -26 c42 -31 50 -31 93 1 l34 27 -10 6 c-5 3 -11 15 -14 26 l-3 20 -9 -14z m-19 -46 c7 -19 4 -22 -22 -27 l-20 -3 -3 23 -3 22 21 0 21 0 6 -15z"/><path id="pYvymT5so" d="M1197 1704 c-4 -4 -7 -16 -7 -26 l0 -18 21 0 21 0 -9 13 c-6 6 -12 18 -14 25 l-4 13 -8 -7z"/><path id="piaup0mkN" d="M1315 1660 l18 -20 8 6 9 5 -5 8 c-2 5 -14 11 -26 14 l-21 6 17 -19z"/><path id="plGqpg5Dr" d="M1621 1661 l-13 -23 11 -11 10 -10 7 16 c3 9 4 24 2 34 l-4 18 -13 -24z"/><path id="pmq3WmqU3" d="M1252 1658 c-7 -7 -12 -18 -12 -25 l0 -12 -32 5 -33 5 19 -15 19 -15 33 1 34 1 0 34 0 33 -8 0 c-4 0 -13 -5 -20 -12z"/><path id="pPFJqdUTV" d="M1980 1642 c0 -10 87 -72 100 -72 6 0 10 -4 10 -8 0 -4 14 -16 30 -26 17 -9 39 -26 49 -37 l19 -21 6 10 6 10 -105 76 c-107 77 -115 82 -115 68z"/><path id="p142Vc1ZVl" d="M2225 1610 l-6 -10 15 0 16 0 0 10 c0 6 -4 10 -9 10 -6 0 -13 -4 -16 -10z"/><path id="p10Yx8Wk2u" d="M1164 1585 c11 -8 26 -15 34 -15 l14 0 -12 15 -12 15 -22 0 -21 -1 19 -14z"/><path id="pHz0jk2Zo" d="M1440 1571 l0 -30 -10 -6 -10 -6 0 32 0 31 -13 -11 -13 -11 -12 12 -12 12 0 -15 0 -16 20 -18 21 -19 -5 -13 -6 -14 16 -6 16 -6 10 16 c5 10 13 17 18 17 l9 0 -5 -15 -6 -15 10 0 c5 0 15 7 22 15 l12 14 -7 41 -7 40 -9 0 -9 0 2 -31 3 -32 -14 -5 -14 -5 6 31 6 31 -9 6 -10 6 0 -30z"/><path id="pI4d4U2eN" d="M2265 1590 l6 -10 10 5 c14 9 11 15 -7 15 l-15 0 6 -10z"/><path id="pefKNKPBI" d="M2120 1585 c0 -3 2 -5 5 -5 3 0 5 2 5 5 0 3 -2 5 -5 5 -3 0 -5 -2 -5 -5z"/><path id="pW2NqCk2E" d="M2160 1560 c14 -11 28 -20 31 -20 3 0 14 -15 24 -34 l19 -34 -17 -25 -17 -26 -45 -31 -45 -31 0 -69 0 -69 -27 -26 c-16 -14 -60 -49 -100 -78 l-72 -52 0 -14 -1 -13 27 18 c27 17 110 82 166 129 l27 23 0 70 0 70 53 38 c63 46 67 51 67 88 l0 29 -42 39 -41 38 -16 0 -16 0 25 -20z"/><path id="prX7FgsQo" d="M1755 1550 l-20 -9 10 -1 10 -1 -20 -15 -20 -15 19 -15 c11 -8 24 -14 29 -14 l8 0 -6 19 -6 20 18 10 18 10 -15 1 -15 0 15 10 15 10 -10 -1 c-5 0 -19 -4 -30 -9z"/><path id="p4jQkxsHc" d="M1290 1537 l0 -14 19 -17 20 -18 -8 28 -7 28 -12 4 -12 4 0 -15z"/><path id="p1C6vP1LRY" d="M1686 1502 l-6 -11 10 -6 c5 -3 10 -10 10 -16 l0 -9 -20 0 c-11 0 -20 -1 -20 -3 0 -1 -4 -17 -9 -35 l-10 -32 10 0 9 0 12 25 c14 32 24 32 37 -2 l11 -28 -5 33 -4 32 8 0 9 0 10 -27 10 -28 1 28 1 27 13 0 12 0 -35 22 c-19 12 -38 26 -41 31 l-6 9 -7 -10z"/><path id="pdI16UDYO" d="M2390 1490 c0 -11 2 -20 4 -20 2 0 6 9 9 20 l5 20 -9 0 -9 0 0 -20z"/><path id="paHi8UND3" d="M2437 1492 l-17 -19 0 -46 0 -47 -15 0 -15 0 0 15 0 15 -10 0 -10 0 0 -23 0 -23 -37 -13 -38 -13 -32 -31 -33 -31 0 -15 0 -15 16 22 15 22 52 30 52 30 43 0 42 0 0 38 0 38 13 18 14 19 -5 23 c-5 29 -13 30 -35 6z"/><path id="p1FCAUAc5R" d="M1221 1461 c26 -21 35 -20 26 4 l-6 15 -22 0 -21 0 23 -19z"/><path id="pm830lUmU" d="M1173 1419 c4 -30 7 -73 7 -96 l0 -43 15 0 15 0 12 -25 11 -25 18 0 18 0 -24 43 -25 42 0 35 0 35 10 15 9 15 -17 18 c-9 10 -25 23 -36 29 l-19 10 6 -53z"/><path id="prSjraP7L" d="M1323 1434 l-5 -15 5 -6 6 -5 16 5 c19 8 19 23 0 31 l-16 6 -6 -16z"/><path id="pKO0hl7g3" d="M1618 1434 c-5 -4 -8 -16 -8 -28 l0 -20 11 11 11 11 -4 17 -3 17 -7 -8z"/><path id="plqLcXl9u" d="M2476 1414 c-3 -9 -6 -31 -6 -50 l0 -34 -45 0 -46 0 -28 -14 c-15 -8 -33 -22 -40 -30 l-13 -16 21 0 21 0 0 14 0 15 18 5 c9 2 36 8 60 11 l43 7 6 -21 5 -21 14 0 14 0 0 40 0 40 -11 0 -11 0 6 35 c7 36 3 47 -8 19z"/><path id="pxB1gdWT7" d="M2002 1400 l0 -25 5 13 5 12 -5 13 -5 12 0 -25z"/><path id="p14fDuQLa8" d="M2030 1365 l0 -55 9 0 8 0 6 42 6 42 17 13 18 13 -32 0 -32 0 0 -55z"/><path id="p2jerVacH" d="M1665 1380 l-18 -20 36 0 37 0 -17 20 c-10 11 -18 20 -19 20 0 0 -9 -9 -19 -20z"/><path id="pP5LxCCj7" d="M2273 1370 l-5 -20 -13 0 c-8 0 -27 -12 -44 -26 l-31 -26 1 -51 2 -52 4 23 4 22 9 0 8 0 -5 20 -6 21 49 44 c27 25 52 45 56 45 5 0 8 5 8 10 l0 10 -16 0 -16 0 -5 -20z"/><path id="pwKE0l3Nz" d="M1240 1333 l0 -28 20 -33 20 -33 15 -6 16 -5 7 6 6 7 -32 25 c-18 14 -32 30 -32 35 l0 10 38 -6 37 -7 28 -20 29 -20 5 6 5 5 -5 13 -5 14 -51 13 -50 13 -26 20 -25 19 0 -28z"/><path id="p31LVFpzZ" d="M1613 1333 l7 -6 7 6 6 7 -13 0 -13 0 6 -7z"/><path id="pqy0eEGvH" d="M1402 1319 c2 -7 10 -15 17 -17 l14 -4 -5 13 c-2 7 -10 15 -17 17 l-13 5 4 -14z"/><path id="p1F8toJq1K" d="M2152 1221 l-2 -103 -42 -39 -42 -38 5 -5 5 -5 37 25 37 25 5 22 6 22 -3 100 -4 100 -2 -104z"/><path id="pzsMZRbNz" d="M1640 1296 c0 -8 5 -18 10 -21 l10 -6 10 6 9 6 -6 14 -5 15 -14 0 -14 0 0 -14z"/><path id="ppCb7LmPp" d="M2373 1273 l7 -6 7 6 6 7 -13 0 -13 0 6 -7z"/><path id="pANhyunuN" d="M1442 1240 l0 -25 5 13 5 12 -5 13 -5 12 0 -25z"/><path id="p6F0q9lWh" d="M1610 1255 c0 -3 2 -5 5 -5 3 0 5 2 5 5 0 3 -2 5 -5 5 -3 0 -5 -2 -5 -5z"/><path id="p146zLO0VB" d="M1390 1225 l0 -14 15 5 c8 4 15 10 15 15 l0 9 -15 0 -15 0 0 -15z"/><path id="p1EE2lXPVk" d="M1712 1210 l0 -35 5 18 c2 9 2 25 0 35 l-5 17 0 -35z"/><path id="pnWBnNZgn" d="M1745 1229 l-7 -10 5 -6 6 -5 10 7 c6 3 11 10 11 16 0 12 -17 12 -25 -2z"/><path id="p1BDNBgTSq" d="M2010 1210 l0 -20 -52 -41 c-29 -23 -48 -40 -43 -38 25 10 155 103 155 110 l0 9 -30 0 -30 0 0 -20z"/><path id="pIN2SMAT0" d="M2251 1174 c4 -31 10 -58 12 -61 3 -2 16 3 30 12 l25 16 8 -12 7 -12 -23 -19 -22 -18 10 0 c6 0 14 5 17 10 l6 10 20 0 19 0 0 35 0 35 -10 0 -10 0 0 30 0 30 -20 0 -20 0 0 -40 0 -40 -15 0 -15 0 0 40 0 40 -13 0 -14 0 8 -56z"/><path id="pYQn5DV9v" d="M1360 1200 l0 -20 25 0 25 0 -17 20 c-10 11 -21 20 -25 20 l-8 0 0 -20z"/><path id="p5LGeSSRg" d="M1770 1190 l0 -13 7 6 6 7 -6 7 -7 6 0 -13z"/><path id="plgO027xM" d="M2221 1184 l1 -19 5 13 5 13 -6 6 -6 6 1 -19z"/><path id="pXPbHsSrO" d="M2040 1103 l-73 -57 12 -4 13 -4 29 28 30 29 -7 -20 -8 -20 45 36 44 37 3 16 3 16 -9 0 c-5 0 -42 -26 -82 -57z"/><path id="p1FOPWZt8l" d="M1465 1119 l-7 -10 6 -7 6 -6 17 17 17 17 -16 0 -17 0 -6 -11z"/><path id="p4wE5Ux6t" d="M1540 1115 l12 -15 24 0 24 0 0 9 0 9 -22 6 c-13 3 -29 6 -37 6 l-13 0 12 -15z"/><path id="pA9znxZnm" d="M1496 1091 l-6 -9 53 -12 c28 -6 69 -18 90 -26 l37 -14 45 0 45 0 0 10 0 10 -42 -5 -43 -5 33 10 32 11 0 10 0 11 -25 -4 -25 -5 0 8 c0 5 -4 9 -10 9 l-10 0 0 -15 0 -15 -23 0 c-13 0 -27 4 -33 8 -10 9 -84 32 -102 32 -6 0 -13 -4 -16 -9z"/><path id="pjPPbXndw" d="M2189 1092 c-2 -5 -31 -33 -64 -61 l-60 -51 -12 0 -13 0 0 -15 0 -15 48 30 c26 16 64 44 85 62 l37 33 -9 14 -9 13 -3 -10z"/><path id="pymYl2dUI" d="M1350 1055 l0 -31 12 -12 12 -12 49 0 48 0 -6 10 -6 10 -22 0 -22 0 14 9 13 9 62 -3 61 -4 37 -15 37 -16 68 1 68 2 -65 8 -65 7 -43 16 c-24 9 -77 21 -119 28 l-76 11 -18 -11 -18 -12 -10 18 -10 17 -1 -30z"/><path id="p115CA3dK6" d="M2140 984 l-65 -44 15 0 15 0 52 36 c29 20 53 40 53 45 0 12 4 14 -70 -37z"/></g></g><g id="l5OemfIGnibzWDSAWZ5I5qY" fill="#15081C" style="transform:none"><g><path id="p11VwNKOHV" d="M1545 2791 l-40 -9 -35 -41 -36 -41 -37 0 -37 0 0 -30 0 -30 -59 0 -59 0 -36 -36 -36 -36 0 -23 0 -24 -10 -6 -10 -6 0 -53 0 -53 -30 -6 -30 -6 2 -69 1 -68 -25 -27 -26 -28 -7 -44 -6 -45 -10 0 -9 0 0 -67 c0 -38 3 -78 6 -90 l6 -23 39 0 39 0 0 -34 0 -35 -28 -3 -27 -3 -3 -102 -3 -103 9 0 9 0 7 -31 6 -31 20 -5 20 -5 0 -32 0 -32 15 -20 14 -19 1 -32 0 -33 20 0 20 0 0 -20 0 -20 15 0 15 0 0 11 c0 7 8 18 18 25 l17 14 -23 6 c-12 3 -22 10 -22 14 0 4 -15 23 -34 42 l-35 35 -7 27 -7 28 13 24 13 24 -21 23 -21 23 4 124 5 125 10 3 10 4 0 14 0 14 -19 0 -19 0 -16 47 c-9 26 -16 54 -16 63 l0 17 19 24 19 25 -5 26 -5 25 31 11 31 11 0 13 c0 7 -7 22 -15 32 l-15 20 0 24 c0 13 5 32 10 43 l11 19 13 0 c8 0 19 -7 26 -15 l13 -16 8 13 9 13 0 65 0 65 10 37 11 37 32 20 33 20 40 9 c58 13 67 20 118 89 l45 62 32 17 32 16 70 -4 69 -4 24 -27 24 -28 0 -38 0 -37 33 -24 c17 -14 35 -24 40 -22 l7 2 0 -245 0 -244 33 6 c17 3 33 6 33 7 1 1 4 56 6 124 l5 122 -28 0 -29 0 0 30 0 30 10 0 10 0 0 45 0 45 11 0 10 0 -4 41 -4 42 -16 12 -17 12 0 15 0 15 -39 7 -38 6 5 48 4 48 -14 11 -13 12 -85 5 -85 5 -40 -8z"/><path id="p18wOWSHuf" d="M1578 2761 c-20 -4 -44 -14 -53 -21 -23 -19 -85 -106 -85 -119 l0 -11 11 0 c6 0 25 11 43 25 18 14 36 25 40 25 4 0 22 11 40 25 18 14 39 25 47 25 l15 0 18 -22 19 -21 -17 -12 c-9 -7 -16 -17 -16 -23 l0 -11 20 -6 20 -6 19 6 19 6 12 30 13 30 -11 24 -11 24 -24 15 c-12 9 -36 18 -53 20 l-29 4 -37 -7z"/><path id="psbRk2XCE" d="M2157 2761 c17 -4 49 -18 70 -30 l38 -23 -26 27 -26 26 -44 5 -44 4 32 -9z"/><path id="p4LimalKF" d="M1943 2733 l-13 -5 0 -55 0 -54 26 20 c15 12 33 21 40 21 l14 0 0 -13 0 -14 -25 -13 -25 -13 0 -15 0 -14 24 6 25 6 6 -10 6 -9 -50 -33 -51 -33 0 -12 c0 -19 9 -16 46 12 18 14 37 25 43 25 6 0 15 9 21 20 l11 20 13 0 14 0 6 -17 7 -16 -31 -29 c-17 -15 -37 -28 -43 -28 l-12 0 -13 -21 c-30 -47 10 -32 83 31 25 22 50 40 54 40 l8 0 -4 24 -5 24 -38 17 -39 18 -5 14 -6 15 20 5 20 5 -45 30 -45 30 0 14 0 14 -12 -1 c-7 0 -19 -3 -25 -6z"/><path id="pWIIBs7ev" d="M2120 2727 c0 -8 3 -22 6 -31 l6 -16 17 0 c9 0 27 -7 39 -16 l22 -15 10 6 c6 3 10 12 10 19 l0 13 -23 21 -23 22 -32 6 -32 7 0 -16z"/><path id="pECnpMNeI" d="M2090 2675 c0 -3 2 -5 5 -5 3 0 5 2 5 5 0 3 -2 5 -5 5 -3 0 -5 -2 -5 -5z"/><path id="pN2ktB5wQ" d="M2270 2608 l0 -34 16 -22 c17 -24 22 -26 44 -12 l15 9 -20 15 -20 15 18 6 17 7 13 -5 14 -5 -5 24 -4 24 -13 0 c-7 0 -27 3 -44 6 l-31 7 0 -35z"/><path id="pFIGrEDwF" d="M1756 2603 c-8 -8 -6 -89 3 -128 l7 -30 18 53 18 53 -6 23 -6 24 -14 5 -14 6 -6 -6z"/><path id="pYvfxr9uF" d="M1294 2571 l-22 -9 -21 -30 -21 -30 0 -54 c0 -29 -3 -70 -7 -91 l-6 -39 -14 -5 -14 -5 -19 17 -18 17 -11 -21 c-16 -28 -14 -44 9 -68 l19 -21 21 5 22 6 20 42 21 43 15 -5 14 -6 -8 34 c-4 19 -7 45 -6 58 l2 24 13 15 c6 8 36 26 65 38 l52 24 0 19 0 19 -13 11 c-8 6 -27 13 -43 16 l-29 4 -21 -8z m46 -56 l12 -15 -8 0 c-5 0 -19 -3 -31 -6 l-23 -6 0 21 0 21 19 0 19 0 12 -15z"/><path id="p4gO3NLkE" d="M1447 2574 c-4 -4 -7 -22 -7 -40 l0 -33 26 -20 c15 -12 33 -21 40 -21 l14 0 0 -10 0 -10 -17 -1 -18 -1 34 -10 34 -9 31 30 31 30 35 15 35 15 -17 6 -17 7 -50 -17 -50 -16 -33 3 -33 3 0 40 0 40 -15 3 c-9 1 -19 0 -23 -4z"/><path id="p14A9snTMq" d="M2400 2561 c0 -4 18 -21 40 -36 23 -16 45 -35 50 -44 l9 -16 1 53 0 52 -50 0 -50 0 0 -9z"/><path id="pms7QhsAV" d="M1798 2483 l-18 -51 10 -52 10 -51 -15 -36 -15 -35 0 -30 0 -29 23 -47 22 -47 3 108 c1 59 1 155 0 215 l-3 107 -17 -52z"/><path id="p1A7UnWQ6O" d="M2256 2498 c-3 -13 -6 -44 -6 -70 l0 -48 16 0 15 0 -7 -12 -8 -12 31 22 32 22 6 -10 6 -10 32 0 32 1 -27 22 c-15 12 -41 32 -58 45 l-30 24 -6 24 c-8 30 -20 31 -28 2z"/><path id="pKhZWlbN4" d="M2310 2490 l0 -9 52 -36 c59 -39 68 -42 68 -20 l0 15 -52 30 c-57 32 -68 35 -68 20z"/><path id="psgq7jZ9T" d="M2413 2493 l-13 -5 29 -24 c33 -27 41 -30 41 -11 l0 14 -18 16 c-20 18 -20 18 -39 10z"/><path id="p11Yk95Qzr" d="M1721 2483 c0 -5 4 -17 9 -28 l9 -20 0 28 1 27 -10 0 c-5 0 -10 -3 -9 -7z"/><path id="prF3joTuN" d="M1331 2457 c-13 -6 -28 -19 -34 -28 l-10 -16 8 -49 8 -49 9 35 c5 19 16 50 24 68 l15 34 14 -6 15 -5 0 14 0 15 -12 0 c-7 0 -24 -6 -37 -13z"/><path id="pfby7XSXT" d="M2094 2419 c-32 -29 -60 -56 -62 -60 -2 -5 -8 -9 -14 -9 -5 0 -16 -7 -24 -15 l-15 -15 -21 0 -20 0 5 -12 4 -13 85 0 85 0 46 35 46 35 10 29 11 28 -5 9 -6 8 -41 -45 c-23 -25 -55 -55 -71 -66 l-29 -20 -8 8 -9 9 12 15 c7 8 33 32 60 53 l47 38 0 20 0 19 -13 0 -14 0 -59 -51z"/><path id="p1CVPmYXyE" d="M1654 2440 l-21 -8 -26 -32 -27 -32 0 -14 0 -14 9 0 c5 0 32 14 60 31 l51 32 0 17 0 18 -12 5 -13 4 -21 -7z"/><path id="p7qgJgPRK" d="M1395 2420 l-6 -10 10 0 11 0 0 10 c0 6 -2 10 -4 10 -3 0 -8 -4 -11 -10z"/><path id="pMx6NzX42" d="M2500 2311 l0 -99 -25 -16 -25 -16 0 -40 0 -40 25 0 25 0 0 20 0 20 14 0 c8 0 18 -4 21 -10 l6 -10 21 0 22 0 -27 28 -27 28 -6 92 -7 92 10 0 10 0 7 -80 7 -81 29 -33 29 -32 6 -26 7 -26 -11 -20 -11 -20 -5 -58 c-4 -33 -8 -69 -11 -82 l-5 -23 -9 6 -10 6 0 19 0 18 -15 6 -15 5 0 -23 c0 -14 3 -31 6 -40 l6 -16 13 0 14 0 12 -35 13 -35 13 0 13 0 0 31 c0 16 7 62 16 101 l16 72 -4 98 -5 99 -24 32 -23 32 -4 62 -4 63 -31 15 c-16 8 -36 15 -44 15 l-13 0 0 -99z"/><path id="paRGSl9vM" d="M1413 2383 l-43 -4 0 -9 c0 -5 7 -16 16 -24 l15 -16 28 0 c16 0 42 5 60 11 l31 11 11 19 10 19 -43 -2 c-24 -1 -62 -3 -85 -5z"/><path id="pPfg6yh47" d="M1668 2330 l-57 -30 -15 -22 -16 -22 0 -33 0 -32 10 -6 10 -6 20 6 21 7 20 42 20 43 34 33 c60 58 42 66 -47 20z"/><path id="pT7gw77JZ" d="M2320 2347 l-25 -10 18 -4 18 -5 -4 -11 c-2 -7 -18 -21 -35 -32 l-31 -20 -1 -12 0 -13 18 0 17 1 49 43 48 42 -24 16 -23 15 -25 -10z"/><path id="p68YwqoVa" d="M2460 2305 c0 -3 2 -5 5 -5 3 0 5 2 5 5 0 3 -2 5 -5 5 -3 0 -5 -2 -5 -5z"/><path id="pxduyPptr" d="M1344 2238 c3 -29 6 -63 6 -75 l0 -23 15 0 14 0 12 -39 12 -40 -17 -16 c-9 -9 -23 -30 -32 -47 l-15 -29 12 -15 11 -14 19 0 18 0 15 22 16 22 0 41 -1 40 -15 40 c-8 22 -18 48 -21 58 l-5 17 16 0 c21 0 20 6 -4 32 -11 12 -26 34 -32 50 l-13 28 -9 0 -9 0 7 -52z"/><path id="phnypzmM8" d="M1732 2266 c-10 -14 -27 -45 -36 -70 l-18 -46 -9 0 c-5 0 -9 -3 -9 -8 l0 -7 43 3 43 4 13 -16 c8 -9 18 -16 22 -16 l10 0 -18 33 -17 32 0 57 c-1 32 -2 58 -3 58 -1 0 -10 -11 -21 -24z"/><path id="p8EBzU1CN" d="M2120 2279 c-14 -5 -47 -11 -75 -15 l-50 -6 25 -10 c14 -5 30 -16 37 -25 l12 -16 51 33 50 32 -6 9 c-6 10 -10 10 -44 -2z"/><path id="prkRpVcjC" d="M2315 2230 l-29 -30 42 0 42 0 0 14 c0 20 -11 46 -19 46 -4 0 -20 -13 -36 -30z"/><path id="pN8HXoMVy" d="M1464 2225 l-7 -17 16 -15 15 -16 17 7 16 6 -3 22 -3 23 -23 3 -22 3 -6 -16z"/><path id="p15Cu7ZBNu" d="M2095 2190 l-40 -29 -47 -1 -48 0 0 -29 0 -30 11 -6 10 -7 56 39 c105 72 113 78 113 86 0 12 -13 7 -55 -23z"/><path id="pQ1lXFHH5" d="M2176 2202 c-3 -5 -4 -27 -3 -50 l1 -42 10 3 10 3 8 30 8 29 -6 18 c-6 18 -19 23 -28 9z"/><path id="phBzA5Wu8" d="M1160 2173 l1 -28 13 -17 13 -18 17 0 16 0 0 20 c0 10 -5 31 -12 45 l-11 25 -19 0 -18 0 0 -27z"/><path id="p13GI2f1SS" d="M2383 2189 c-25 -9 -30 -19 -10 -19 15 0 43 17 37 23 -3 3 -15 1 -27 -4z"/><path id="pIiLE1Ypg" d="M1933 2130 l0 -65 4 33 c2 17 2 47 0 65 l-4 32 0 -65z"/><path id="py82vRlIU" d="M2256 2167 l-8 -18 4 -59 4 -60 21 -22 c11 -13 24 -33 28 -45 l6 -23 9 0 c5 0 14 9 20 20 l11 21 11 -7 10 -7 -5 -70 -5 -71 -26 -23 -27 -23 -25 0 -24 0 0 -8 c0 -4 5 -13 12 -20 l12 -12 37 0 37 0 11 14 12 14 -3 108 -3 109 -52 35 -52 35 -3 65 -3 65 -9 -18z"/><path id="po9RStjGv" d="M1494 2155 l-6 -15 12 -15 12 -15 23 0 24 0 19 -25 c25 -31 34 -31 49 0 l11 25 -18 0 -19 0 -6 10 -6 10 -23 -6 -22 -5 -12 25 -12 26 -10 0 -11 0 -5 -15z"/><path id="pUTtiHJzm" d="M2416 2154 l-20 -14 10 0 c13 0 39 18 34 24 -3 2 -14 -2 -24 -10z"/><path id="p12rpW5l7a" d="M1430 2155 c0 -3 2 -5 5 -5 3 0 5 2 5 5 0 3 -2 5 -5 5 -3 0 -5 -2 -5 -5z"/><path id="p1BaA5Tf9V" d="M2291 2128 c0 -13 4 -32 9 -43 l9 -20 0 43 1 42 -10 0 -10 0 1 -22z"/><path id="p46JMsrOG" d="M1313 2098 l-32 -19 -20 -43 c-12 -23 -21 -50 -21 -59 l0 -17 25 0 25 0 0 18 c0 9 14 43 31 75 17 32 29 60 27 61 -2 2 -17 -6 -35 -16z"/><path id="plXVukzFb" d="M1102 2098 c-17 -21 -19 -78 -3 -78 11 0 51 62 51 79 l0 11 -19 0 -19 0 -10 -12z"/><path id="pNowbJJ2x" d="M1661 2099 l-1 -17 -16 -12 -15 -13 3 -25 3 -25 27 -20 26 -20 37 7 36 7 19 32 c11 18 20 40 20 50 l0 17 -26 0 -26 0 -20 -25 -19 -25 -27 6 c-35 9 -37 11 -23 28 l13 15 -5 18 -5 18 -1 -16z"/><path id="poXHpmX7t" d="M2198 2091 l-27 -21 1 -110 0 -110 24 0 24 0 1 13 c0 6 0 36 -1 65 l-2 54 19 -4 18 -4 -3 -59 c-1 -33 -5 -70 -8 -83 l-5 -23 23 3 23 3 -3 80 -3 80 -22 18 -22 19 -5 50 -5 50 -27 -21z"/><path id="p1AAtByLUy" d="M1834 1803 c4 -164 7 -325 8 -358 0 -33 -3 -147 -7 -253 l-8 -193 -9 13 -9 13 6 -32 6 -32 -25 -26 c-14 -14 -26 -30 -26 -35 l0 -10 34 0 34 0 4 12 5 13 74 -2 74 -2 -15 6 c-20 8 -60 44 -71 66 l-10 17 12 23 c7 12 18 26 26 30 l13 8 -5 8 -5 8 -25 -5 -25 -4 0 10 c0 6 4 13 9 16 l9 6 -5 20 -5 20 11 0 11 0 0 -15 0 -14 65 45 66 46 -4 12 -4 11 -28 3 c-16 2 -53 1 -82 -3 l-53 -6 0 -106 c0 -59 -2 -104 -4 -102 -3 2 -7 157 -10 344 l-6 340 8 75 9 75 2 -255 1 -255 6 -37 7 -38 78 0 79 0 0 40 0 40 -10 0 -10 0 0 -25 0 -26 -62 3 -63 3 -3 62 -3 62 43 -2 43 -2 -2 -27 -2 -28 9 0 10 0 6 28 c3 15 9 38 13 52 l7 25 49 33 48 33 11 -11 11 -11 -30 -25 c-16 -13 -42 -29 -57 -35 l-28 -11 0 -23 c0 -12 3 -25 6 -28 l7 -7 63 50 c35 28 68 50 73 50 5 0 12 4 16 9 l5 9 -130 94 -129 93 -3 175 -3 175 -3 -192 -2 -191 70 -52 70 -52 0 -12 c0 -7 -9 -21 -19 -30 l-19 -18 -19 10 c-10 6 -27 20 -37 31 l-19 21 -15 0 -14 0 5 -27 5 -27 -9 -24 -9 -23 -11 7 -11 7 4 54 5 54 12 12 11 11 21 -12 c37 -23 31 -6 -11 32 l-40 36 0 135 0 135 -9 0 -10 0 -4 -17 -5 -18 -1 43 -1 42 15 0 15 0 0 28 c0 15 -3 44 -6 65 l-7 37 -29 0 -29 0 5 -297z m136 -622 l0 -19 -17 -6 -16 -7 -10 10 -10 10 6 15 6 16 21 0 20 0 0 -19z"/><path id="p1AYUSWxYb" d="M1487 2062 l-27 -28 0 -30 0 -29 20 -25 20 -25 1 45 2 45 6 -40 6 -40 35 -3 36 -3 -11 78 -11 78 -25 3 -24 3 -28 -29z"/><path id="pjZcuoUcq" d="M2009 2065 l-34 -26 -7 -22 -6 -22 -1 -151 -1 -151 25 -11 c34 -16 33 -16 27 14 l-5 27 13 -8 13 -8 -8 19 -9 19 -9 116 -10 115 7 27 6 27 10 0 10 0 0 -115 0 -115 50 0 50 0 0 14 0 15 -21 6 -20 7 -20 31 -19 32 0 51 0 50 11 11 12 12 -15 30 -14 31 -35 -25z"/><path id="pOCoaQpH4" d="M2427 2083 l-18 -5 3 -26 3 -25 13 -5 13 -4 6 21 5 21 9 0 8 0 3 -107 3 -107 27 -15 27 -15 7 7 7 7 -18 20 -19 20 -4 110 -5 110 -26 -1 c-14 -1 -34 -3 -44 -6z"/><path id="prXYrF8V1" d="M2530 2027 l0 -67 15 0 15 0 0 34 0 34 15 12 c8 7 15 16 15 21 l0 9 -18 0 -18 0 -12 12 -12 12 0 -67z"/><path id="pKTFl7I2O" d="M1143 2038 c-5 -7 -13 -19 -17 -25 l-7 -13 8 0 c10 0 36 40 30 46 -2 3 -9 -1 -14 -8z"/><path id="pDbleXDIu" d="M1170 2016 l-23 -25 6 -15 c4 -9 11 -16 16 -16 14 0 41 41 41 62 l0 18 -8 0 c-5 0 -19 -11 -32 -24z"/><path id="pNxca00Dt" d="M1591 2018 l-1 -28 10 0 c12 0 12 8 0 35 l-9 20 0 -27z"/><path id="pEGPeIehu" d="M1807 2022 l-8 -22 -33 -25 -33 -25 -21 0 -22 0 0 -15 0 -16 19 11 20 10 28 0 29 0 12 -12 12 -12 5 6 6 6 -3 58 -3 59 -8 -23z"/><path id="p1HWYbzcUg" d="M2437 1938 c8 -59 13 -61 13 -5 l0 47 -9 0 -9 0 5 -42z"/><path id="pRNxuaUrT" d="M1425 1940 l-6 -20 6 -10 6 -10 20 0 19 0 0 14 c0 8 -3 21 -6 30 l-6 16 -13 0 -14 0 -6 -20z"/><path id="p6GIWFx1y" d="M1560 1915 l-35 -13 18 -1 c23 -1 22 -8 -13 -48 l-30 -34 0 -29 0 -30 42 0 41 0 -16 18 c-10 10 -17 25 -17 34 l0 15 18 16 19 17 16 0 c10 0 26 -5 37 -12 l19 -12 8 7 7 8 -39 38 -40 39 -35 -13z"/><path id="p1GfMURZK0" d="M1130 1881 l0 -39 35 -46 35 -46 -40 -20 -40 -20 0 -18 c0 -10 6 -26 13 -37 l14 -18 11 7 10 6 7 29 6 30 15 12 14 12 35 -6 c19 -3 35 -4 35 -1 0 2 -16 25 -36 51 l-36 48 -22 7 -21 6 28 1 29 1 -7 33 c-4 17 -9 35 -12 40 l-4 7 -35 0 -34 0 0 -39z"/><path id="p1CbAccyma" d="M1718 1909 l-18 -10 0 -23 0 -23 30 -41 c17 -23 34 -42 39 -42 l8 0 7 53 c3 28 6 62 6 75 l0 22 -27 0 c-16 0 -36 -5 -45 -11z"/><path id="p6TEuTUQ2" d="M1359 1879 l-21 -21 6 -44 6 -44 17 -33 17 -32 8 44 7 43 21 35 c11 19 20 40 20 48 l0 13 -16 6 c-9 3 -22 6 -30 6 l-14 0 -21 -21z"/><path id="p54sxNVkc" d="M1806 1854 c-3 -9 -6 -40 -6 -69 l0 -54 10 -6 10 -6 0 75 c0 77 -3 89 -14 60z"/><path id="phrmdIkh0" d="M2407 1844 l-7 -7 0 -43 0 -42 -29 -24 -28 -24 12 -17 c17 -24 28 -21 64 12 l31 29 0 17 c0 9 -6 31 -14 48 -8 18 -16 38 -18 45 l-3 13 -8 -7z"/><path id="pGQHUDPpk" d="M1637 1813 c-4 -3 -7 -12 -7 -20 l0 -13 25 0 25 0 0 8 c0 10 -21 32 -30 32 -4 0 -10 -3 -13 -7z"/><path id="pUVbyc8AY" d="M2468 1755 c-1 -30 -2 -55 0 -55 1 0 14 7 27 16 l24 16 10 -6 10 -7 -5 -13 -5 -14 -77 -48 -77 -49 -59 0 -58 1 26 -21 26 -21 0 -77 0 -76 -20 -11 c-20 -11 -28 -30 -12 -30 5 0 16 6 26 13 l18 13 3 35 c2 19 4 51 4 71 l1 36 72 52 c39 29 91 61 115 72 l43 19 0 35 0 36 -34 34 c-19 19 -39 34 -44 34 l-10 0 -4 -55z"/><path id="p3tb5McJ6" d="M1710 1775 l0 -15 10 0 10 0 0 15 0 15 -10 0 -10 0 0 -15z"/><path id="p4AM08jJb" d="M2040 1761 c0 -11 58 -61 70 -61 5 0 17 3 27 7 l18 7 -25 6 -25 6 -3 22 -3 22 -30 0 -29 0 0 -9z"/><path id="pO33X0dBF" d="M1430 1725 l0 -35 25 -16 24 -16 11 7 c5 3 10 12 10 19 l0 14 -25 16 -25 16 0 15 0 15 -10 0 -10 0 0 -35z"/><path id="p1omd2O3Z" d="M1605 1730 l0 -30 7 0 c4 0 9 9 13 20 l6 20 -6 10 c-3 5 -9 10 -13 10 l-7 0 0 -30z"/><path id="pAw0mSOGA" d="M2206 1743 c-3 -10 -9 -24 -12 -32 l-6 -13 19 6 19 6 34 -25 c19 -14 38 -25 42 -25 l8 0 0 15 0 15 -10 0 -10 0 0 14 0 14 -36 21 c-42 25 -40 25 -48 4z"/><path id="p19lSMHo22" d="M1658 1739 l-18 -10 0 -15 0 -14 27 -11 26 -10 14 5 13 5 0 19 0 18 -12 12 c-14 14 -27 15 -50 1z"/><path id="pfyQC4ZDP" d="M1515 1730 c3 -5 8 -10 11 -10 3 0 2 5 -1 10 -3 6 -8 10 -11 10 -3 0 -2 -4 1 -10z"/><path id="p1FxOY9AvS" d="M1734 1684 l-17 -26 9 -26 9 -27 16 -3 16 -3 18 40 18 40 -6 15 -6 16 -20 0 -21 0 -16 -26z"/><path id="pJl4GwdJj" d="M2582 1657 l-12 -53 0 -48 0 -48 -50 -48 -50 -48 0 -41 0 -41 19 0 19 0 6 16 c3 9 6 33 6 54 l0 39 22 15 22 16 22 0 22 0 6 53 c3 28 8 82 12 120 l6 67 -19 0 -18 0 -13 -53z"/><path id="p7rtmf7aM" d="M2200 1682 c0 -12 19 -26 26 -19 2 2 -2 10 -11 17 l-15 12 0 -10z"/><path id="pEEjyQ8KB" d="M1273 1670 l-23 -9 0 -25 0 -25 10 -6 9 -6 41 27 41 27 -8 7 c-4 4 -17 10 -28 13 l-20 6 -22 -9z"/><path id="pCfgKW39r" d="M1620 1659 l-11 -20 12 -15 11 -14 18 0 18 0 12 15 13 15 -18 20 -18 20 -13 0 -13 0 -11 -21z"/><path id="ptkbZNMLO" d="M1802 1623 c-6 -12 -12 -29 -12 -37 l0 -16 11 0 10 0 -6 -10 -6 -9 -25 9 c-14 6 -32 10 -41 10 l-16 0 15 -17 15 -18 -4 -12 -5 -13 11 0 c5 0 13 5 16 10 l6 10 25 0 24 0 0 25 0 25 -12 0 -13 0 13 9 14 8 -4 24 -3 24 -13 -22z"/><path id="pt41koTNB" d="M2465 1594 c-27 -19 -65 -45 -82 -57 l-33 -22 0 -65 0 -65 -62 -56 -61 -55 13 -47 14 -46 8 12 c4 7 8 27 8 45 l0 33 10 20 11 19 39 20 c22 11 45 20 52 20 l13 0 0 69 0 70 40 40 39 41 19 0 18 0 -3 -17 -3 -17 -22 -11 c-11 -6 -27 -16 -36 -23 l-14 -12 5 -25 c2 -14 6 -25 8 -25 2 0 24 14 49 32 l45 32 0 63 0 63 -12 0 c-7 -1 -35 -17 -63 -36z"/><path id="plgV8v3rw" d="M1140 1569 l0 -33 58 -54 c31 -30 65 -58 75 -63 l17 -10 0 9 c0 5 -11 24 -25 43 -14 19 -32 50 -40 69 -9 19 -19 42 -24 50 l-8 15 -27 3 -26 3 0 -32z"/><path id="pswtRiJVi" d="M1474 1575 l7 -26 -21 -46 -20 -46 0 -34 0 -34 9 5 8 6 6 41 5 42 16 16 16 15 1 -29 1 -30 10 29 11 29 -17 27 c-9 16 -16 35 -16 44 l0 16 -11 0 -11 0 6 -25z"/><path id="pftmOtDGe" d="M1513 1584 l-6 -15 12 -12 11 -11 11 11 12 12 -6 15 -6 16 -11 0 -11 0 -6 -16z"/><path id="pG8CtQnZI" d="M1668 1503 l72 -71 0 -15 0 -16 20 -6 20 -6 10 6 10 6 0 19 0 19 -50 28 -50 28 -5 16 -5 15 -38 19 c-20 11 -41 21 -47 24 -5 2 23 -28 63 -66z"/><path id="pSQ6lfefA" d="M1416 1525 c-9 -9 -16 -19 -16 -23 0 -4 -5 -36 -10 -71 l-9 -64 14 -34 15 -35 17 4 18 3 3 23 4 23 -16 24 -16 24 0 31 0 31 14 28 15 27 -8 13 -8 12 -17 -16z"/><path id="p1Bg6HQJec" d="M1524 1465 l-6 -35 16 -25 16 -25 28 0 28 0 12 12 c7 7 12 19 12 28 l0 16 -45 32 c-25 18 -47 32 -50 32 -2 0 -7 -16 -11 -35z"/><path id="p1Af3sRjIs" d="M1657 1375 l-28 -25 -40 0 -40 0 -29 15 c-34 18 -34 18 -19 -24 l11 -31 -13 -16 c-7 -9 -24 -20 -37 -25 l-23 -9 3 -23 3 -22 23 -3 23 -4 13 12 14 11 11 46 12 46 11 -11 11 -11 -1 -50 -1 -51 10 -5 c5 -4 9 -12 9 -20 l0 -13 -19 5 -18 5 -6 -23 -6 -23 11 -13 10 -13 24 0 24 0 20 20 20 20 0 39 0 38 -26 47 -25 46 5 9 6 9 49 12 50 12 10 -6 10 -7 7 -35 6 -35 32 3 31 3 3 28 3 28 -48 21 c-26 12 -52 27 -58 34 l-10 13 -28 -24z"/><path id="p14SWfChH8" d="M1186 1324 c-3 -9 -6 -32 -6 -51 l0 -36 25 -33 25 -33 20 -6 19 -6 6 -37 c11 -69 15 -81 31 -96 l15 -16 40 0 39 0 0 11 c0 6 -14 24 -31 41 l-31 31 5 18 5 17 -20 34 c-11 18 -35 49 -53 69 -18 20 -36 46 -40 58 l-6 21 -10 0 -9 0 0 15 0 15 -9 0 c-5 0 -12 -7 -15 -16z"/><path id="p3msL8JFT" d="M2310 1285 l-13 -15 7 -58 7 -57 9 -3 10 -4 0 -19 0 -19 -65 -42 c-35 -24 -65 -46 -65 -50 l0 -8 46 0 45 0 20 10 19 11 0 29 0 30 20 0 20 0 6 25 6 25 14 0 14 0 0 39 c0 21 3 53 6 70 l7 31 -27 0 -26 0 0 -55 0 -55 -15 0 -15 0 0 65 0 65 -9 0 c-5 0 -14 -7 -21 -15z"/><path id="pbwCBJAuz" d="M1800 1193 c0 -43 -3 -88 -6 -100 l-6 -23 16 0 16 0 0 100 0 100 -10 0 -10 0 0 -77z"/><path id="pw3v3DwCA" d="M2186 1180 l7 -90 -13 -15 -13 -15 6 -6 5 -5 20 12 20 12 5 61 4 61 -14 38 -15 37 -9 0 -10 0 7 -90z"/><path id="pJUtTOp0I" d="M1313 1212 l47 -48 0 -11 0 -12 26 -20 27 -21 31 0 32 0 11 11 11 11 -5 14 -5 14 -42 18 -42 19 -29 28 c-31 29 -65 45 -93 45 l-16 0 47 -48z"/><path id="pI9znUQY9" d="M1696 1243 c-3 -3 -6 -24 -6 -46 l0 -39 15 12 15 12 0 29 0 28 -9 5 -8 5 -7 -6z"/><path id="pePUINI9e" d="M1756 1169 l-18 -31 -34 -14 -34 -14 0 -19 c0 -11 -3 -26 -6 -34 l-5 -14 16 -7 16 -6 -6 10 -6 10 20 0 20 0 25 25 25 25 10 37 10 36 -7 14 -8 13 -18 -31z m4 -54 l0 -15 -10 0 -10 0 0 15 0 15 10 0 10 0 0 -15z"/><path id="p13pMOX0bN" d="M2045 1108 c-59 -47 -115 -100 -115 -108 0 -3 11 -18 25 -33 l26 -27 28 0 28 0 18 20 18 20 -21 0 -22 0 0 15 0 16 -29 -16 -30 -15 -6 10 -7 11 12 14 c7 8 17 15 23 15 5 0 34 19 64 41 l53 41 0 19 0 19 -7 -1 c-5 0 -30 -18 -58 -41z"/><path id="pdaeuH97k" d="M1440 1052 l0 -11 43 -12 c73 -20 101 -32 141 -61 l40 -28 62 0 63 0 7 22 6 21 -18 14 -18 13 -46 0 -46 0 -59 21 -60 21 -57 5 -58 6 0 -11z"/><path id="p18sWAkkrr" d="M1410 1019 c0 -5 5 -9 10 -9 l10 0 0 -25 0 -25 30 0 30 0 0 -11 0 -10 50 2 50 3 6 -7 c4 -4 16 -7 28 -7 l20 0 -9 9 c-6 5 -34 22 -64 37 l-54 26 -53 13 -54 12 0 -8z"/><path id="pLcmgJYHE" d="M2076 943 c-4 -5 -22 -13 -39 -20 l-32 -11 31 -1 31 -1 18 20 18 20 -10 0 c-5 0 -13 -3 -17 -7z"/></g></g><g id="l34c1DhbVXQ03fP4KBZSBge" fill="#000" style="transform:none"><g><path id="plRBPNNFW" d="M1660 3579 c-240 -27 -472 -101 -673 -215 l-100 -57 -96 -72 -96 -73 -105 -109 -105 -109 -67 -94 -68 -95 -59 -120 -60 -120 -41 -121 -40 -120 -21 -120 -22 -119 -1 -180 0 -180 22 -118 23 -119 35 -111 36 -112 53 -111 53 -111 70 -104 70 -104 74 -81 c40 -44 107 -111 148 -148 l75 -68 104 -70 104 -70 111 -53 111 -53 90 -30 c174 -58 387 -92 571 -92 l83 0 113 16 113 15 100 25 c130 33 255 82 385 151 l105 55 105 76 105 77 90 90 91 90 60 80 c203 267 316 552 354 895 l12 105 -6 120 c-19 356 -107 627 -295 906 l-69 104 -77 85 c-41 47 -108 113 -148 148 l-72 63 -110 74 -111 74 -104 50 c-289 136 -622 194 -920 160z m473 -109 l27 -13 20 -32 20 -32 0 -22 c0 -12 -7 -35 -15 -50 l-14 -28 -30 -13 -31 -12 15 -21 15 -21 0 -34 0 -34 -29 -29 -29 -29 -47 0 -46 0 -33 14 -33 14 -17 23 -16 23 0 39 0 39 30 28 29 27 -19 18 -20 18 0 44 0 45 31 30 30 31 67 -5 67 -6 28 -12z m-450 -174 l99 -169 -14 -8 -13 -9 -39 0 c-22 0 -80 -5 -129 -11 l-89 -12 -9 14 c-5 8 -9 28 -9 45 l0 31 75 9 74 9 -76 120 c-41 66 -77 125 -80 132 l-4 11 18 5 c10 3 36 4 58 4 l39 -2 99 -169z m824 63 l44 -21 26 -34 25 -34 5 -43 5 -42 -31 -42 -30 -42 -37 -7 -37 -7 -42 21 -43 21 -6 -15 c-10 -26 -8 -28 49 -59 30 -16 55 -33 55 -38 0 -4 -7 -22 -16 -38 l-15 -30 -7 3 c-32 14 -163 91 -168 99 l-5 9 27 83 c14 45 29 86 31 90 l5 9 27 -25 c32 -30 64 -47 87 -47 l17 0 19 17 18 16 0 28 0 28 -26 20 -27 21 -48 0 -49 0 11 27 c6 15 15 33 21 40 l10 13 31 0 31 0 43 -21z m-1250 -38 l41 -30 28 -58 28 -58 4 -68 4 -67 -36 -35 -37 -34 -34 -7 -35 -6 -25 6 -25 6 -33 30 -34 29 -28 63 -28 62 -1 51 0 52 17 26 17 27 38 19 37 20 31 1 31 0 40 -29z m1593 -221 l-13 -32 41 -40 40 -41 32 13 32 13 40 -41 41 -40 -179 -86 -178 -86 -43 42 c-24 23 -43 46 -43 51 0 9 127 293 152 341 l10 19 41 -41 40 -40 -13 -32z m-1981 -1 l23 -31 -36 -30 c-21 -17 -35 -32 -33 -34 2 -3 33 -9 67 -15 l63 -10 28 -15 29 -14 15 -30 15 -29 0 -42 0 -42 -44 -42 -43 -42 -28 -5 -27 -6 -33 9 c-19 5 -43 17 -55 27 l-21 17 34 33 35 34 25 -17 26 -16 20 11 21 11 0 19 0 20 -19 19 -18 18 -119 18 c-66 9 -131 20 -145 24 l-27 6 107 92 c58 51 109 93 112 93 3 0 16 -14 28 -31z m1164 -159 c295 -60 522 -203 695 -435 l52 -70 44 -90 c52 -106 78 -187 102 -316 l17 -93 -6 -126 -6 -125 -25 -97 -24 -96 -36 -82 -35 -81 -58 -87 -57 -87 -82 -81 -82 -82 -92 -60 -92 -61 -76 -31 c-41 -18 -119 -44 -171 -58 l-96 -26 -165 0 -165 0 -86 21 c-173 44 -318 115 -451 222 l-73 59 -51 58 c-145 167 -229 346 -269 568 l-18 98 7 116 7 116 14 67 c30 144 95 290 183 414 l49 70 69 69 69 69 70 49 c134 95 273 155 440 188 l90 18 106 1 107 1 95 -20z m848 -1923 l44 -23 33 -48 32 -48 0 -47 0 -47 -29 -45 c-16 -24 -51 -66 -79 -93 l-51 -49 -130 123 c-72 68 -131 127 -131 131 0 13 94 112 134 141 l39 28 47 0 47 0 44 -23z m-1881 -71 c0 -4 -20 -31 -45 -58 l-46 -51 18 -19 c10 -11 31 -29 47 -41 l28 -20 47 53 47 54 42 -34 42 -33 -13 -16 c-35 -45 -230 -261 -236 -261 -3 1 -23 16 -43 34 l-37 32 44 51 45 51 -42 36 c-23 20 -45 36 -49 36 -5 0 -25 -20 -46 -45 -20 -25 -40 -45 -43 -45 -3 1 -22 16 -44 35 l-38 34 122 140 123 140 38 -32 c21 -18 39 -36 39 -41z m1575 -282 l96 -156 -10 -11 c-12 -15 -80 -52 -84 -46 -14 18 -177 287 -181 299 l-6 15 42 27 c24 15 44 28 45 28 0 0 45 -70 98 -156z m-245 48 c0 -5 -11 -42 -25 -82 -14 -40 -25 -75 -25 -76 0 -1 16 -8 36 -14 l36 -12 19 -32 19 -31 0 -38 0 -39 -28 -27 -27 -28 -80 -26 c-44 -15 -88 -27 -97 -27 l-17 0 -25 83 c-14 45 -39 123 -55 173 l-28 92 39 12 c22 6 46 14 54 17 l13 5 12 -46 11 -46 8 0 8 0 12 50 12 50 11 8 c12 8 97 40 110 41 4 1 7 -3 7 -7z m-927 -18 l47 -16 0 -9 c0 -5 -11 -36 -24 -69 l-24 -59 19 -127 c10 -70 18 -128 17 -129 -2 -2 -27 6 -55 18 l-53 20 -1 46 c-1 25 -4 56 -7 69 l-7 23 -45 -46 -44 -45 -16 1 c-8 0 -36 10 -63 22 l-47 22 99 80 99 80 27 68 c15 37 28 67 29 67 1 0 23 -7 49 -16z m481 -88 l33 -14 17 -23 16 -23 0 -37 0 -36 -26 -27 c-15 -14 -31 -26 -37 -26 l-10 0 21 -23 22 -23 0 -39 0 -39 -22 -23 -21 -23 -124 0 -123 0 0 185 0 185 110 0 111 0 33 -14z"/><path id="pIbkq1kS9" d="M2016 3389 l-15 -21 8 -22 8 -21 22 -3 22 -4 15 12 14 12 0 22 0 22 -12 12 -12 12 -17 0 -18 0 -15 -21z"/><path id="pNEBqBvMr" d="M1984 3225 l-7 -27 16 -15 15 -15 21 12 22 11 -3 27 -3 27 -27 3 -27 3 -7 -26z"/><path id="p9qBI5oZ7" d="M1152 3258 l-12 -12 0 -28 0 -28 29 -64 29 -64 22 -12 21 -11 15 12 14 11 0 27 0 26 -26 55 c-24 52 -60 100 -74 100 -3 0 -11 -5 -18 -12z"/><path id="pMWikpIqB" d="M2761 2939 c-16 -29 -28 -55 -26 -57 5 -5 105 51 105 59 0 3 -11 16 -24 28 l-24 23 -31 -53z"/><path id="pEkShKJqX" d="M1625 2880 c-112 -26 -185 -53 -281 -104 -290 -154 -491 -439 -544 -768 l-12 -76 5 -124 5 -123 20 -77 c28 -104 67 -199 114 -281 l39 -68 57 -68 c31 -37 87 -94 124 -127 l68 -60 77 -46 c43 -26 112 -60 153 -76 l75 -30 97 -21 98 -21 117 0 118 0 105 24 105 24 82 35 83 35 86 58 87 57 73 74 74 74 55 83 c68 103 108 190 141 309 l26 92 5 141 5 141 -16 84 c-34 165 -89 296 -181 424 l-43 60 -73 73 -74 74 -65 43 c-132 87 -265 142 -413 170 l-79 15 -117 -1 -116 -1 -80 -18z m98 -123 l27 -17 0 -49 0 -49 16 -6 c9 -3 24 -6 35 -6 l19 0 0 -14 0 -14 15 -12 16 -13 -4 -11 c-2 -6 -7 -22 -11 -36 l-7 -25 11 15 12 15 -8 -20 -8 -20 -2 -235 c-1 -129 0 -225 3 -212 l4 22 10 0 9 0 0 -19 c0 -11 3 -26 6 -35 l6 -16 -16 0 -16 0 0 -439 0 -439 -6 -16 -6 -16 16 0 16 0 1 398 1 397 8 25 8 25 1 -20 c1 -11 6 -27 11 -35 l10 -15 0 143 0 142 -25 0 -24 0 -7 36 -6 35 15 32 c9 18 19 44 22 60 l5 27 17 0 16 0 -7 47 c-3 25 -9 49 -12 52 l-5 5 -8 -13 -9 -13 -4 68 -5 69 9 3 c4 2 8 10 8 18 l0 14 23 10 c12 5 38 23 57 40 l34 30 -17 0 -17 0 0 15 0 15 10 0 10 0 0 20 0 20 15 0 14 0 8 15 8 14 30 2 c17 1 50 -1 75 -6 l45 -7 37 -19 c45 -23 48 -28 56 -87 l7 -46 39 -8 40 -8 32 -25 33 -25 25 0 26 0 0 -18 0 -18 12 -12 12 -12 6 -52 5 -52 25 -13 25 -12 6 -65 6 -66 18 -20 18 -20 4 -27 c9 -53 12 -128 7 -166 l-6 -37 -7 5 -8 4 5 -25 5 -26 -11 -7 -11 -7 7 -109 c4 -61 6 -122 4 -138 l-3 -27 -11 6 -11 7 7 -69 7 -68 -6 5 -5 6 -43 -39 -42 -40 -2 -26 c-2 -15 -5 -48 -9 -74 l-6 -47 -41 -3 -42 -3 -3 -52 -3 -53 -15 0 -14 0 0 -16 0 -16 -30 -30 -30 -30 5 -8 6 -9 -20 -10 c-11 -6 -28 -11 -38 -11 l-18 0 -80 -53 c-44 -30 -95 -59 -113 -65 l-33 -11 -23 9 c-13 5 -27 13 -30 19 l-7 10 -15 -6 -15 -6 -29 22 c-38 27 -43 27 -59 -10 l-13 -30 -6 5 -5 6 -25 -16 -25 -16 -34 5 -34 6 -54 36 -54 36 -26 -7 -25 -6 0 14 0 15 -30 -5 -30 -4 0 16 0 16 -18 0 c-10 0 -27 7 -39 15 l-21 15 -15 -6 -14 -5 -17 17 -17 17 13 8 13 9 -17 0 -18 0 0 9 0 9 23 6 22 6 -27 21 -28 21 0 13 0 14 -20 6 -20 6 -25 33 -25 33 1 19 c1 11 1 48 1 82 l-2 64 -20 5 -20 5 6 9 5 9 -25 31 -26 31 -6 25 -7 26 12 18 c6 10 11 24 11 31 l0 13 -10 -15 -10 -15 -14 18 -14 18 5 19 5 20 -14 0 -14 0 -2 71 -2 71 20 5 20 5 0 44 0 44 10 0 10 0 0 15 0 15 -20 0 -20 0 0 9 0 9 -19 -5 -18 -5 -7 28 -8 28 11 4 11 4 0 24 0 24 -12 0 -13 0 12 8 12 8 7 42 7 42 25 27 25 27 0 68 0 69 28 6 29 6 0 13 0 14 15 0 15 0 0 15 0 15 -15 0 -15 0 0 26 0 26 20 5 20 5 0 18 0 18 -11 4 -10 3 32 34 32 34 21 2 c12 1 40 3 64 4 l42 1 0 30 0 30 24 0 25 0 28 37 28 36 30 19 30 19 71 -3 70 -3 27 -18z m864 -1194 l-7 -6 0 13 0 13 7 -6 6 -7 -6 -7z"/><path id="p118AcHrn2" d="M1592 2743 l-22 -4 -38 -37 -37 -37 45 -5 45 -5 40 -22 41 -21 17 9 17 10 0 34 0 35 -22 25 -22 25 -20 -1 c-12 -1 -31 -4 -44 -6z"/><path id="pGynLh8L4" d="M1273 2558 c-6 -7 -13 -29 -17 -48 -4 -19 -9 -47 -13 -62 l-5 -28 12 0 12 0 19 24 19 24 45 18 45 17 0 12 c0 6 -8 19 -17 28 l-18 15 -36 7 -35 7 -11 -14z"/><path id="pQEEcOPvC" d="M1807 2515 l-6 -14 9 -6 10 -6 0 20 c0 25 -6 27 -13 6z"/><path id="p15zjM5HBo" d="M1518 2448 l-4 -12 -54 -2 -54 -1 -18 -23 -19 -23 3 -16 3 -16 73 0 73 0 29 47 29 46 -15 6 c-9 3 -22 6 -29 6 l-13 0 -4 -12z"/><path id="ppBQSkUAo" d="M2250 2407 l0 -47 10 0 c17 0 58 30 64 47 l6 15 -24 -6 -25 -6 -15 22 -16 22 0 -47z"/><path id="p31vhNw82" d="M2010 2350 l-35 -29 -17 -1 -18 0 0 -10 0 -10 45 0 45 0 0 10 0 10 14 0 c7 0 19 7 26 15 l12 15 -11 0 -11 0 0 15 0 15 -7 0 c-5 0 -24 -14 -43 -30z"/><path id="pBsiHM66P" d="M2511 2334 l1 -19 5 13 5 13 -6 6 -6 6 1 -19z"/><path id="pZXTiU8Mw" d="M2500 2300 c0 -5 5 -10 10 -10 6 0 10 5 10 10 0 6 -4 10 -10 10 -5 0 -10 -4 -10 -10z"/><path id="p1FpfNrHYr" d="M1590 2270 c-6 -10 -10 -30 -10 -44 l0 -26 10 0 c6 0 13 7 16 15 l6 15 22 0 22 0 17 29 17 29 -45 0 -45 0 -10 -18z"/><path id="pdsVfPHSF" d="M1745 2280 l-6 -10 10 0 11 0 0 10 c0 6 -2 10 -4 10 -3 0 -8 -4 -11 -10z"/><path id="p1ARqBY6Tk" d="M1270 2257 c0 -8 -3 -35 -6 -61 l-7 -46 16 0 17 0 6 24 c3 13 4 38 2 56 l-3 33 -12 5 -13 4 0 -15z"/><path id="pZ2NqMmhs" d="M1787 2263 l-7 -6 0 -44 0 -43 20 0 20 0 0 50 0 50 -13 0 c-8 0 -17 -3 -20 -7z"/><path id="pqOEJkhGX" d="M1934 2045 l0 -220 3 113 c2 62 2 161 0 220 l-3 107 0 -220z"/><path id="p1D56jNAqg" d="M2426 2163 l-48 -33 32 0 31 0 -3 -22 -3 -23 -32 -3 -33 -3 0 -12 0 -13 29 -17 c36 -21 38 -21 44 3 l5 20 26 0 26 0 0 35 0 35 -11 0 -10 0 6 20 6 20 -8 13 -8 13 -49 -33z"/><path id="pC72X84wZ" d="M1675 2157 l-10 -12 -1 -28 -2 -28 -16 -18 -16 -18 0 -21 0 -22 15 0 15 0 0 -11 0 -11 38 6 37 7 22 24 c12 14 27 25 33 25 l10 0 0 20 0 21 -20 39 -20 40 -38 0 -37 -1 -10 -12z"/><path id="pbvpmBQlK" d="M1800 2131 c0 -6 5 -13 10 -16 l10 -6 0 15 0 16 -10 0 c-5 0 -10 -4 -10 -9z"/><path id="p4dh0rt2k" d="M1403 2083 l7 -6 7 6 6 7 -13 0 -13 0 6 -7z"/><path id="pVtcgU7sT" d="M1482 2058 l-12 -12 0 -44 0 -44 31 -29 31 -29 13 0 13 0 4 -11 4 -11 27 7 c15 4 27 10 27 14 -1 12 -46 57 -64 64 l-17 7 6 22 c4 13 8 26 9 31 0 4 -13 16 -30 27 l-30 20 -12 -12z"/><path id="pB4s8VNSd" d="M1361 2010 l-23 -42 15 -15 15 -15 18 31 18 30 15 4 16 5 -16 1 -16 1 -9 21 -9 21 -24 -42z"/><path id="p13raf25TA" d="M1810 2035 c0 -3 2 -5 5 -5 3 0 5 2 5 5 0 3 -2 5 -5 5 -3 0 -5 -2 -5 -5z"/><path id="p10ULVd34S" d="M2480 1990 l0 -40 10 0 10 0 0 40 0 40 -10 0 -10 0 0 -40z"/><path id="pNIKtuecs" d="M1240 1950 l0 -47 25 -23 24 -23 16 13 c19 16 19 25 -2 77 l-18 42 -22 4 -23 4 0 -47z"/><path id="pGiXULZNC" d="M2530 1945 l0 -45 15 0 15 0 0 45 0 45 -15 0 -15 0 0 -45z"/><path id="prZGhUgzH" d="M1970 1826 l0 -125 16 -16 16 -16 12 4 11 4 3 22 4 22 -16 24 -16 24 0 91 0 90 -15 0 -15 0 0 -124z"/><path id="pa6CvDkXB" d="M1146 1864 l-16 -15 10 -20 11 -19 29 -15 c16 -8 33 -15 39 -15 l9 0 -5 43 c-7 50 -2 43 -35 51 l-27 6 -15 -16z"/><path id="ptl4ovFH" d="M1720 1855 c0 -13 3 -30 6 -39 l6 -16 19 0 19 0 11 26 c5 15 8 27 7 28 -2 1 -18 7 -35 13 l-33 11 0 -23z"/><path id="pbHZdlVKl" d="M1340 1833 c0 -15 3 -38 6 -51 l7 -23 20 3 20 3 7 20 7 20 -34 28 -33 29 0 -29z"/><path id="pTTXFoINc" d="M1500 1767 l0 -24 18 -15 17 -15 41 -7 42 -6 6 16 c3 9 6 20 6 25 l0 9 -42 20 -42 20 -23 0 -23 0 0 -23z"/><path id="p12SLWMmsI" d="M1532 1408 l15 -23 22 -3 21 -3 0 19 0 20 -16 6 c-9 3 -25 6 -36 6 l-20 0 14 -22z"/><path id="pi72dDK1h" d="M1800 1200 l0 -70 10 0 10 0 0 70 0 70 -10 0 -10 0 0 -70z"/><path id="pIhOGI93e" d="M1550 1195 l-13 -54 13 -16 12 -15 15 0 14 0 24 28 24 27 1 18 0 17 -14 0 -14 0 -5 14 c-3 8 -14 19 -25 25 l-19 10 -13 -54z"/><path id="pVl72LvTs" d="M1881 1112 l1 -67 5 20 5 20 31 27 32 27 -20 15 c-11 8 -28 17 -37 19 l-18 5 1 -66z"/><path id="p1xVlIm4c" d="M1727 1135 l-27 -26 0 -19 0 -20 18 0 c9 0 22 4 28 8 15 10 34 47 34 66 l0 16 -13 0 c-7 0 -25 -11 -40 -25z"/><path id="pLd3Y2oQy" d="M1597 1016 l-17 -13 13 -11 13 -12 12 12 c13 13 16 38 5 38 -5 0 -16 -7 -26 -14z"/><path id="p9yUT5ype" d="M1640 962 c0 -5 11 -14 25 -20 l26 -12 39 0 39 0 15 16 c9 8 16 17 16 20 0 2 -36 4 -80 4 l-80 0 0 -8z"/><path id="pwgn23KZv" d="M2729 910 l-24 -20 69 -66 69 -67 19 23 18 22 0 35 0 35 -29 29 -29 29 -35 0 -35 0 -23 -20z"/><path id="p3h99QKaT" d="M2200 462 c0 -5 5 -23 11 -41 l11 -32 21 3 20 3 11 18 11 17 -11 18 -11 17 -32 3 -31 3 0 -9z"/><path id="p1BhTe0n9S" d="M1740 506 l0 -36 45 0 46 0 6 16 6 17 -10 16 -10 16 -42 3 -41 3 0 -35z"/><path id="pthCZcSH1" d="M1740 355 l0 -36 38 3 37 3 0 30 0 30 -37 3 -38 3 0 -36z"/><path id="pNp8R4vfm" d="M33 2025 l0 -40 4 23 c2 12 2 30 0 40 l-5 17 1 -40z"/><path id="pfrP847iw" d="M260 955 c0 -3 2 -5 5 -5 3 0 5 2 5 5 0 3 -2 5 -5 5 -3 0 -5 -2 -5 -5z"/></g></g><g id="texts"><g><text x="11.232%" y="50.275%" fill="#fff" dominant-baseline="central" font-family="Arial" font-size="178" text-anchor="middle">QE</text><text x="88.913%" y="50.331%" fill="#fff" dominant-baseline="central" font-family="Arial" font-size="207" text-anchor="middle">UK</text></g></g></svg>